<?xml version="1.0" encoding="utf-8"?>
<!-- Generator: Adobe Illustrator 19.2.1, SVG Export Plug-In . SVG Version: 6.00 Build 0)  -->
<svg version="1.1" id="Layer_1" xmlns="http://www.w3.org/2000/svg" xmlns:xlink="http://www.w3.org/1999/xlink" x="0px" y="0px"
	 viewBox="0 0 200 50" style="enable-background:new 0 0 200 50;" xml:space="preserve">
<style type="text/css">
	.st0{fill:#ED3E4B;}
	.st1{fill:none;stroke:#ED3E4B;stroke-miterlimit:10;}
	.st2{fill:#4682FF;}
	.st3{fill:none;stroke:#4682FF;stroke-miterlimit:10;}
	.st4{fill:#F9A32C;}
	.st5{fill:none;stroke:#F9A42D;stroke-width:0.5;stroke-miterlimit:10;}
</style>
<g>
	<g>
		<g>
			<path class="st0" d="M57.2,34.1V19.8h5.4c1.2,0,2.2,0.1,2.8,0.2c0.9,0.2,1.7,0.5,2.3,1c0.8,0.6,1.5,1.5,1.9,2.4s0.6,2.1,0.6,3.4
				c0,1.1-0.1,2.1-0.4,2.9c-0.3,0.8-0.6,1.5-1.1,2.1s-0.9,1-1.4,1.3c-0.5,0.3-1.1,0.6-1.9,0.7s-1.6,0.2-2.5,0.2H57.2z M59.3,32.4
				h3.4c1,0,1.9-0.1,2.5-0.3c0.6-0.2,1.1-0.4,1.4-0.7c0.5-0.4,0.9-1.1,1.2-1.8s0.4-1.7,0.4-2.8c0-1.5-0.3-2.6-0.8-3.5
				c-0.5-0.8-1.2-1.3-2-1.6c-0.6-0.2-1.5-0.3-2.7-0.3h-3.3V32.4z"/>
			<path class="st0" d="M72.9,21.8v-2h1.9v2H72.9z M72.9,34.1V23.8h1.9v10.4H72.9z"/>
			<path class="st0" d="M77.1,31l1.9-0.3c0.1,0.7,0.4,1.2,0.9,1.6s1.2,0.6,2.1,0.6c0.9,0,1.6-0.2,2-0.5c0.4-0.3,0.6-0.7,0.6-1.2
				c0-0.4-0.2-0.7-0.6-0.9c-0.3-0.2-0.9-0.4-2-0.6c-1.4-0.3-2.4-0.6-3-0.8c-0.5-0.2-1-0.6-1.2-1s-0.4-0.9-0.4-1.4
				c0-0.5,0.1-0.9,0.4-1.3s0.6-0.7,1-1c0.3-0.2,0.7-0.4,1.2-0.5c0.5-0.1,1.1-0.2,1.7-0.2c0.9,0,1.7,0.1,2.4,0.4s1.2,0.6,1.5,1
				s0.5,0.9,0.7,1.6l-1.9,0.2c-0.1-0.5-0.3-1-0.7-1.2c-0.4-0.3-1-0.4-1.8-0.4c-0.9,0-1.5,0.1-1.9,0.4c-0.4,0.3-0.6,0.6-0.6,0.9
				c0,0.2,0.1,0.4,0.2,0.6c0.2,0.2,0.4,0.3,0.7,0.5c0.2,0.1,0.8,0.2,1.7,0.4c1.4,0.3,2.3,0.6,2.9,0.8c0.5,0.2,1,0.5,1.3,0.9
				c0.3,0.4,0.5,0.9,0.5,1.5c0,0.6-0.2,1.1-0.6,1.7c-0.4,0.5-0.9,0.9-1.6,1.2s-1.5,0.4-2.4,0.4c-1.5,0-2.6-0.3-3.4-0.8
				S77.3,32.1,77.1,31z"/>
			<path class="st0" d="M93.1,32.6l0.3,1.6c-0.5,0.1-1,0.2-1.5,0.2c-0.7,0-1.2-0.1-1.6-0.3c-0.4-0.2-0.7-0.5-0.8-0.8
				c-0.2-0.3-0.2-1-0.2-2.1v-6h-1.4v-1.4h1.4v-2.6l1.9-1.1v3.6h1.9v1.4h-1.9v6.1c0,0.5,0,0.8,0.1,1s0.2,0.3,0.3,0.3s0.4,0.1,0.7,0.1
				C92.5,32.6,92.7,32.6,93.1,32.6z"/>
			<path class="st0" d="M95,34.1V23.8h1.7v1.6c0.4-0.7,0.9-1.2,1.2-1.5c0.4-0.2,0.8-0.4,1.2-0.4c0.7,0,1.3,0.2,2,0.6l-0.7,1.6
				c-0.5-0.3-0.9-0.4-1.4-0.4c-0.4,0-0.8,0.1-1.1,0.3c-0.3,0.2-0.6,0.6-0.7,1c-0.2,0.6-0.3,1.3-0.3,2.1v5.4H95z"/>
			<path class="st0" d="M102.3,21.8v-2h1.9v2H102.3z M102.3,34.1V23.8h1.9v10.4H102.3z"/>
			<path class="st0" d="M114.7,30.3l1.9,0.2c-0.2,1.2-0.7,2.1-1.6,2.8s-1.9,1-3.2,1c-1.6,0-2.8-0.5-3.8-1.4s-1.4-2.3-1.4-4
				c0-1.1,0.2-2.1,0.6-2.9s1-1.5,1.9-1.9s1.7-0.6,2.7-0.6c1.2,0,2.3,0.3,3,0.9s1.3,1.4,1.5,2.4l-1.9,0.3c-0.2-0.7-0.5-1.2-1-1.6
				s-1-0.5-1.7-0.5c-1,0-1.8,0.3-2.4,1s-0.9,1.6-0.9,3c0,1.4,0.3,2.4,0.9,3s1.4,0.9,2.3,0.9c0.8,0,1.4-0.2,1.9-0.6
				S114.6,31.2,114.7,30.3z"/>
			<path class="st0" d="M122.5,32.6l0.3,1.6c-0.5,0.1-1,0.2-1.5,0.2c-0.7,0-1.2-0.1-1.6-0.3s-0.7-0.5-0.8-0.8s-0.2-1-0.2-2.1v-6
				h-1.4v-1.4h1.4v-2.6l1.9-1.1v3.6h1.9v1.4h-1.9v6.1c0,0.5,0,0.8,0.1,1c0.1,0.1,0.2,0.3,0.3,0.3c0.2,0.1,0.4,0.1,0.7,0.1
				C121.9,32.6,122.2,32.6,122.5,32.6z"/>
		</g>
	</g>
	<path class="st1" d="M34.3,36v-6.2h7.1V36h2.8V20.5l0,0V14H31.5v21.1h-1.6H29h-2.8v-2.9c1.5-0.2,2.6-1.9,2.6-3.9
		c0-2.1-2.1-3.7-2.8-3.9c-0.3-0.1-0.6,0-1,0.3c-0.8,0.6-2,2-2,3.6c0,1.9,1,3.5,2.3,3.8v3h-3.1"/>
</g>
</svg>
