<?xml version="1.0" encoding="utf-8"?>
<!-- Generator: Adobe Illustrator 19.2.1, SVG Export Plug-In . SVG Version: 6.00 Build 0)  -->
<svg version="1.1" id="Layer_1" xmlns="http://www.w3.org/2000/svg" xmlns:xlink="http://www.w3.org/1999/xlink" x="0px" y="0px"
	 viewBox="0 0 200 50" style="enable-background:new 0 0 200 50;" xml:space="preserve">
<style type="text/css">
	.st0{fill:#ED3E4B;}
	.st1{fill:none;stroke:#ED3E4B;stroke-miterlimit:10;}
	.st2{fill:#4682FF;}
	.st3{fill:none;stroke:#4682FF;stroke-miterlimit:10;}
	.st4{fill:#F9A32C;}
	.st5{fill:none;stroke:#F9A42D;stroke-width:0.5;stroke-miterlimit:10;}
</style>
<g>
	<g>
		<g>
			<path class="st4" d="M72.2,28l2,0.5C73.8,30,73,31.2,71.9,32c-1.1,0.8-2.4,1.2-4,1.2c-1.6,0-3-0.3-4-0.9c-1-0.6-1.8-1.5-2.3-2.7
				s-0.8-2.5-0.8-3.8c0-1.5,0.3-2.8,0.9-3.9s1.5-2,2.6-2.5c1.1-0.6,2.3-0.9,3.7-0.9c1.5,0,2.8,0.4,3.8,1.1c1,0.7,1.8,1.8,2.2,3.1
				l-2,0.4c-0.4-1-0.9-1.8-1.5-2.3c-0.7-0.5-1.5-0.7-2.5-0.7c-1.2,0-2.1,0.3-2.9,0.8c-0.8,0.5-1.3,1.2-1.7,2.1s-0.5,1.8-0.5,2.7
				c0,1.2,0.2,2.3,0.6,3.2s1,1.6,1.8,2c0.8,0.4,1.7,0.7,2.6,0.7c1.1,0,2.1-0.3,2.9-0.9C71.4,30.1,71.9,29.2,72.2,28z"/>
			<path class="st4" d="M75.8,27.8c0-1.9,0.6-3.3,1.7-4.3c0.9-0.8,2.1-1.2,3.5-1.2c1.5,0,2.8,0.5,3.7,1.4s1.4,2.2,1.4,3.9
				c0,1.3-0.2,2.4-0.6,3.1s-1,1.4-1.9,1.8c-0.8,0.4-1.7,0.6-2.7,0.6c-1.5,0-2.8-0.5-3.7-1.4S75.8,29.6,75.8,27.8z M77.7,27.8
				c0,1.3,0.3,2.3,0.9,3c0.6,0.7,1.4,1,2.3,1c0.9,0,1.7-0.3,2.3-1s0.9-1.7,0.9-3c0-1.3-0.3-2.3-0.9-2.9s-1.4-1-2.3-1
				c-0.9,0-1.7,0.3-2.3,1C78,25.5,77.7,26.5,77.7,27.8z"/>
			<path class="st4" d="M88.3,33V22.6H90v1.5c0.3-0.5,0.8-0.9,1.4-1.2s1.2-0.5,2-0.5c0.8,0,1.5,0.2,2,0.5c0.5,0.3,0.9,0.8,1.1,1.3
				c0.9-1.2,2-1.8,3.4-1.8c1.1,0,1.9,0.3,2.5,0.9c0.6,0.6,0.9,1.4,0.9,2.6V33h-1.9v-6.5c0-0.7-0.1-1.2-0.2-1.5s-0.3-0.6-0.7-0.7
				s-0.7-0.3-1.1-0.3c-0.8,0-1.4,0.2-1.9,0.7c-0.5,0.5-0.8,1.3-0.8,2.3v6h-1.9v-6.7c0-0.8-0.2-1.4-0.5-1.8c-0.3-0.4-0.8-0.6-1.5-0.6
				c-0.5,0-1,0.1-1.5,0.4s-0.8,0.6-1,1.1s-0.3,1.2-0.3,2.2V33H88.3z"/>
			<path class="st4" d="M106,33V22.6h1.7v1.5c0.3-0.5,0.8-0.9,1.4-1.2c0.6-0.3,1.2-0.5,2-0.5c0.8,0,1.5,0.2,2,0.5
				c0.5,0.3,0.9,0.8,1.1,1.3c0.9-1.2,2-1.8,3.4-1.8c1.1,0,1.9,0.3,2.5,0.9c0.6,0.6,0.9,1.4,0.9,2.6V33h-1.9v-6.5
				c0-0.7-0.1-1.2-0.2-1.5s-0.3-0.6-0.7-0.7s-0.7-0.3-1.1-0.3c-0.8,0-1.4,0.2-1.9,0.7s-0.8,1.3-0.8,2.3v6h-1.9v-6.7
				c0-0.8-0.2-1.4-0.5-1.8s-0.8-0.6-1.5-0.6c-0.5,0-1,0.1-1.5,0.4s-0.8,0.6-1,1.1c-0.2,0.5-0.3,1.2-0.3,2.2V33H106z"/>
			<path class="st4" d="M130.9,33v-1.5c-0.9,1.2-2,1.8-3.5,1.8c-0.7,0-1.3-0.1-1.8-0.4s-1-0.5-1.3-0.9c-0.3-0.4-0.5-0.8-0.6-1.3
				c-0.1-0.3-0.1-0.9-0.1-1.6v-6.4h1.9v5.8c0,0.9,0,1.5,0.1,1.9c0.1,0.5,0.4,0.8,0.7,1.1s0.9,0.4,1.4,0.4c0.6,0,1.1-0.1,1.6-0.4
				c0.5-0.3,0.8-0.6,1-1.1s0.3-1.1,0.3-2v-5.6h1.9V33H130.9z"/>
			<path class="st4" d="M135.6,33V22.6h1.7v1.5c0.8-1.1,2-1.7,3.5-1.7c0.7,0,1.3,0.1,1.8,0.3c0.6,0.2,1,0.5,1.3,0.9
				c0.3,0.4,0.5,0.8,0.6,1.3c0.1,0.3,0.1,0.9,0.1,1.7V33h-1.9v-6.3c0-0.7-0.1-1.3-0.2-1.6c-0.1-0.4-0.4-0.6-0.8-0.8
				s-0.8-0.3-1.3-0.3c-0.8,0-1.5,0.2-2.1,0.7s-0.9,1.4-0.9,2.7V33H135.6z"/>
			<path class="st4" d="M147.4,20.7v-2h1.9v2H147.4z M147.4,33V22.6h1.9V33H147.4z"/>
			<path class="st4" d="M156.2,31.4l0.3,1.6c-0.5,0.1-1,0.2-1.4,0.2c-0.7,0-1.2-0.1-1.6-0.3s-0.6-0.5-0.8-0.8s-0.2-1-0.2-2.1v-6
				h-1.4v-1.4h1.4v-2.6l1.9-1.1v3.6h1.9V24h-1.9v6.1c0,0.5,0,0.8,0.1,1c0.1,0.1,0.2,0.3,0.3,0.3c0.1,0.1,0.4,0.1,0.6,0.1
				C155.6,31.5,155.8,31.5,156.2,31.4z"/>
			<path class="st4" d="M157.9,37l-0.2-1.7c0.4,0.1,0.8,0.2,1.1,0.2c0.4,0,0.7-0.1,1-0.2c0.2-0.1,0.5-0.3,0.6-0.5
				c0.1-0.2,0.3-0.6,0.6-1.3c0-0.1,0.1-0.2,0.2-0.4L157,22.6h2l2.3,6c0.3,0.8,0.6,1.6,0.8,2.4c0.2-0.8,0.5-1.6,0.8-2.4l2.4-6h1.9
				l-4.2,10.5c-0.5,1.1-0.8,1.9-1,2.4c-0.3,0.6-0.7,1-1.1,1.3c-0.4,0.3-0.9,0.4-1.5,0.4C158.8,37.2,158.4,37.1,157.9,37z"/>
		</g>
	</g>
	<polyline class="st5" points="42.8,23.6 44.7,25.3 46.1,23.6 34.1,12.8 22.2,23.6 23.6,25.3 25.4,23.6 25.4,35.6 32,35.6 32,27.6 
		36.3,27.6 36.3,35.6 	"/>
</g>
</svg>
