<?xml version="1.0" encoding="utf-8"?>
<!-- Generator: Adobe Illustrator 19.2.1, SVG Export Plug-In . SVG Version: 6.00 Build 0)  -->
<svg version="1.1" id="Layer_1" xmlns="http://www.w3.org/2000/svg" xmlns:xlink="http://www.w3.org/1999/xlink" x="0px" y="0px"
	 viewBox="0 0 200 50" style="enable-background:new 0 0 200 50;" xml:space="preserve">
<style type="text/css">
	.st0{fill:#ED3E4B;}
	.st1{fill:none;stroke:#ED3E4B;stroke-miterlimit:10;}
	.st2{fill:#4682FF;}
	.st3{fill:none;stroke:#4682FF;stroke-miterlimit:10;}
	.st4{fill:#F9A32C;}
	.st5{fill:none;stroke:#F9A42D;stroke-width:0.5;stroke-miterlimit:10;}
</style>
<g>
	<g>
		<path class="st2" d="M77.7,35V20.7h2.1l8.3,11.2V20.7h2V35H88l-8.3-11.2V35H77.7z"/>
		<path class="st2" d="M100.9,33.7c-0.7,0.6-1.4,0.9-2.1,1.2c-0.7,0.2-1.4,0.3-2.1,0.3c-1.3,0-2.2-0.3-2.9-0.8c-0.7-0.6-1-1.3-1-2.1
			c0-0.5,0.1-1,0.4-1.4s0.6-0.8,1-1c0.4-0.3,0.9-0.4,1.4-0.6c0.4-0.1,1-0.2,1.7-0.3c1.6-0.2,2.7-0.4,3.5-0.6c0-0.2,0-0.4,0-0.5
			c0-0.7-0.2-1.2-0.5-1.5c-0.5-0.4-1.2-0.6-2.2-0.6c-0.9,0-1.6,0.1-2,0.4s-0.8,0.8-1,1.5l-1.9-0.2c0.2-0.7,0.5-1.3,0.9-1.8
			s1-0.8,1.7-1s1.6-0.4,2.6-0.4c1,0,1.8,0.1,2.4,0.3s1.1,0.5,1.3,0.8c0.3,0.3,0.5,0.7,0.6,1.2c0.1,0.3,0.1,0.8,0.1,1.6v2.3
			c0,1.6,0,2.7,0.1,3.1s0.2,0.8,0.5,1.2h-2C101,34.6,100.9,34.2,100.9,33.7z M100.7,29.8c-0.7,0.3-1.8,0.5-3.2,0.7
			c-0.8,0.1-1.4,0.2-1.7,0.4c-0.3,0.1-0.6,0.3-0.8,0.6s-0.3,0.5-0.3,0.8c0,0.5,0.2,0.9,0.6,1.2c0.4,0.3,1,0.5,1.7,0.5
			c0.7,0,1.4-0.1,2-0.4c0.6-0.3,1-0.7,1.3-1.2c0.2-0.4,0.3-1,0.3-1.8V29.8z"/>
		<path class="st2" d="M109.9,33.4l0.3,1.6c-0.5,0.1-1,0.2-1.5,0.2c-0.7,0-1.2-0.1-1.6-0.3s-0.7-0.5-0.8-0.8s-0.2-1-0.2-2.1v-6h-1.4
			v-1.4h1.4V22l1.9-1.1v3.6h1.9V26h-1.9V32c0,0.5,0,0.8,0.1,1c0.1,0.1,0.2,0.3,0.3,0.3c0.2,0.1,0.4,0.1,0.7,0.1
			C109.3,33.5,109.5,33.4,109.9,33.4z"/>
		<path class="st2" d="M111.8,22.7v-2h1.9v2H111.8z M111.8,35V24.6h1.9V35H111.8z"/>
		<path class="st2" d="M116,29.8c0-1.9,0.6-3.3,1.8-4.3c1-0.8,2.2-1.2,3.6-1.2c1.6,0,2.9,0.5,3.9,1.4c1,0.9,1.5,2.2,1.5,3.9
			c0,1.3-0.2,2.4-0.7,3.1c-0.4,0.8-1.1,1.4-1.9,1.8s-1.8,0.6-2.8,0.6c-1.6,0-2.9-0.5-3.9-1.4S116,31.5,116,29.8z M118,29.8
			c0,1.3,0.3,2.3,1,3c0.6,0.7,1.4,1,2.4,1c1,0,1.8-0.3,2.4-1c0.6-0.7,1-1.7,1-3c0-1.3-0.3-2.3-1-2.9s-1.4-1-2.4-1
			c-1,0-1.8,0.3-2.4,1C118.3,27.5,118,28.5,118,29.8z"/>
		<path class="st2" d="M129,35V24.6h1.7v1.5c0.8-1.1,2.1-1.7,3.6-1.7c0.7,0,1.3,0.1,1.9,0.3s1,0.5,1.3,0.9s0.5,0.8,0.6,1.3
			c0.1,0.3,0.1,0.9,0.1,1.7V35h-1.9v-6.3c0-0.7-0.1-1.3-0.2-1.6c-0.2-0.4-0.4-0.6-0.8-0.8c-0.4-0.2-0.8-0.3-1.4-0.3
			c-0.8,0-1.5,0.2-2.1,0.7s-0.9,1.4-0.9,2.7V35H129z"/>
		<path class="st2" d="M148.7,33.7c-0.7,0.6-1.4,0.9-2.1,1.2s-1.4,0.3-2.1,0.3c-1.3,0-2.2-0.3-2.9-0.8s-1-1.3-1-2.1
			c0-0.5,0.1-1,0.4-1.4s0.6-0.8,1-1s0.9-0.4,1.4-0.6c0.4-0.1,1-0.2,1.7-0.3c1.6-0.2,2.7-0.4,3.5-0.6c0-0.2,0-0.4,0-0.5
			c0-0.7-0.2-1.2-0.5-1.5c-0.5-0.4-1.2-0.6-2.2-0.6c-0.9,0-1.6,0.1-2,0.4s-0.8,0.8-1,1.5l-1.9-0.2c0.2-0.7,0.5-1.3,0.9-1.8
			c0.4-0.5,1-0.8,1.7-1c0.7-0.2,1.6-0.4,2.6-0.4c1,0,1.8,0.1,2.4,0.3s1.1,0.5,1.3,0.8s0.5,0.7,0.6,1.2c0.1,0.3,0.1,0.8,0.1,1.6v2.3
			c0,1.6,0,2.7,0.1,3.1c0.1,0.4,0.2,0.8,0.5,1.2h-2C148.9,34.6,148.8,34.2,148.7,33.7z M148.5,29.8c-0.7,0.3-1.8,0.5-3.2,0.7
			c-0.8,0.1-1.4,0.2-1.7,0.4s-0.6,0.3-0.8,0.6s-0.3,0.5-0.3,0.8c0,0.5,0.2,0.9,0.6,1.2c0.4,0.3,1,0.5,1.7,0.5c0.7,0,1.4-0.1,2-0.4
			c0.6-0.3,1-0.7,1.3-1.2c0.2-0.4,0.3-1,0.3-1.8V29.8z"/>
		<path class="st2" d="M153.5,35V20.7h1.9V35H153.5z"/>
	</g>
	<g>
		<g>
			<path class="st3" d="M22.2,34.2h0.5h1.1V21.2h4.6v-4h10.1v3.1l0.7-0.4h5.9v14.2H46V25h1.2v-2.4h3.7V25h1.2v9.2h0.9h2.4h0.9V22.9
				h1.3v-4.5H60v-3.9c0-0.3,0.3-0.5,0.6-0.5c0.3,0,0.5,0.2,0.5,0.5v3.9h2.5v4.5h1.3v11.3h0.5V36 M51.7,22.7"/>
		</g>
	</g>
</g>
</svg>
