<?xml version="1.0" encoding="utf-8"?>
<!-- Generator: Adobe Illustrator 19.2.1, SVG Export Plug-In . SVG Version: 6.00 Build 0)  -->
<svg version="1.1" id="Layer_1" xmlns="http://www.w3.org/2000/svg" xmlns:xlink="http://www.w3.org/1999/xlink" x="0px"
     y="0px"
     viewBox="0 0 454.2 214" style="enable-background:new 0 0 454.2 214;" xml:space="preserve">
<style type="text/css">
	.st0{fill:#FFA52A;}
	.st1{fill:#AAAAAA;}
	.st2{fill:#3A3A3A;}
	.st3{font-family:'Arial-BoldMT';}
	.st4{font-size:5.9312px;}
	.st5{fill:none;stroke:#3A3A3A;stroke-width:3;stroke-linecap:round;stroke-linejoin:round;stroke-miterlimit:10;}
	.st6{fill:none;stroke:#3A3A3A;stroke-width:2;stroke-linecap:round;stroke-linejoin:round;stroke-miterlimit:10;}
	.st7{fill:none;stroke:#3A3A3A;stroke-width:1.5;stroke-linecap:round;stroke-miterlimit:10;}
	.st8{fill:none;}
	.st9{font-family:'ArialMT';}
	.st10{font-size:24.3763px;}
	.st11{fill:#EFEFEF;}
	.st12{font-size:27.5838px;}
</style>
    <g>
	<rect x="358.4" y="81.8" class="st0" width="38.3" height="86.1"/>
        <rect x="358.4" y="151.4" class="st1" width="38.3" height="17.1"/>
        <text transform="matrix(1 0 0 1 380.1417 84.4819)" class="st2 st3 st4">83%</text>
        <text transform="matrix(1 0 0 1 380.6417 152.9819)" class="st2 st3 st4">30%</text>
        <path class="st5" d="M397.8,168.2V69.5c0-6.6-5.8-12-13-12h-12.3c-7.2,0-13,5.4-13,12v98.7H397.8z"/>
        <line class="st5" x1="404" y1="168.2" x2="353.4" y2="168.2"/>
        <g>
		<rect x="369.6" y="168.2" class="st5" width="18" height="24.2"/>
            <line class="st5" x1="392.5" y1="192.4" x2="365" y2="192.4"/>
	</g>
        <g>
		<path class="st6" d="M384.1,57.4v-11c0-0.7-1.7-1.3-3.7-1.3H377c-2,0-3.7,0.6-3.7,1.3v11H384.1z"/>
            <line class="st6" x1="378.9" y1="21.6" x2="378.9" y2="45"/>
	</g>
        <line class="st7" x1="398" y1="98.1" x2="359.3" y2="98.1"/>
        <line class="st7" x1="377.7" y1="81.7" x2="359.4" y2="81.7"/>
        <line class="st7" x1="379.9" y1="115.4" x2="359.3" y2="115.4"/>
        <line class="st7" x1="379.9" y1="132.4" x2="359.4" y2="132.4"/>
        <line class="st7" x1="378.2" y1="151.4" x2="359.4" y2="151.4"/>
</g>
    <rect x="25.6" y="51.2" class="st8" width="316.9" height="132.3"/>
    <text transform="matrix(1 0 0 1 25.6242 68.7027)"><tspan x="0" y="0" class="st2 st9 st10">Interventions trialled led to </tspan>
        <tspan x="0" y="30.8" class="st2 st9 st10">an increase in childhood </tspan>
        <tspan x="0" y="61.6" class="st2 st9 st10">immunisation coverage from</tspan>
        <tspan x="306.2" y="61.6" class="st11 st9 st10"> </tspan>
        <tspan x="0" y="92.4" class="st1 st3 st12">30%</tspan>
        <tspan x="55.2" y="92.4" class="st9 st10"> </tspan>
        <tspan x="62" y="92.4" class="st2 st9 st10">to </tspan>
        <tspan x="89.1" y="92.4" class="st0 st3 st12">83%</tspan>
        <tspan x="144.3" y="92.4" class="st0 st9 st12"> </tspan></text>
</svg>
