<?xml version="1.0" encoding="utf-8"?>
<!-- Generator: Adobe Illustrator 19.2.1, SVG Export Plug-In . SVG Version: 6.00 Build 0)  -->
<svg version="1.1" id="Layer_1" xmlns="http://www.w3.org/2000/svg" xmlns:xlink="http://www.w3.org/1999/xlink" x="0px" y="0px"
	 viewBox="0 0 151 214" style="enable-background:new 0 0 151 214;" xml:space="preserve">
<style type="text/css">
	.st0{fill:#FFA52A;}
	.st1{fill:#AAAAAA;}
	.st2{fill:#3A3A3A;}
	.st3{fill:none;stroke:#3A3A3A;stroke-width:3;stroke-linecap:round;stroke-linejoin:round;stroke-miterlimit:10;}
	.st4{fill:none;stroke:#3A3A3A;stroke-width:2;stroke-linecap:round;stroke-linejoin:round;stroke-miterlimit:10;}
	.st5{fill:none;stroke:#3A3A3A;stroke-width:1.5;stroke-linecap:round;stroke-miterlimit:10;}
</style>
<g>
	<rect x="55.2" y="151.4" class="st1" width="38.3" height="17.1"/>
	<g>
		<path class="st2" d="M77.9,82.2c-0.2-0.1-0.4-0.2-0.5-0.4s-0.1-0.3-0.1-0.5c0-0.3,0.1-0.6,0.3-0.8c0.2-0.2,0.5-0.3,0.9-0.3
			c0.4,0,0.7,0.1,0.9,0.3s0.3,0.5,0.3,0.8c0,0.2-0.1,0.4-0.2,0.5c-0.1,0.2-0.2,0.3-0.4,0.4c0.2,0.1,0.4,0.2,0.5,0.4
			c0.1,0.2,0.2,0.4,0.2,0.6c0,0.4-0.1,0.7-0.4,1c-0.2,0.2-0.6,0.4-1,0.4c-0.4,0-0.7-0.1-1-0.3c-0.3-0.2-0.5-0.6-0.5-1
			c0-0.2,0.1-0.4,0.2-0.6C77.5,82.4,77.6,82.3,77.9,82.2z M78,83.2c0,0.2,0.1,0.4,0.2,0.5c0.1,0.1,0.3,0.2,0.4,0.2
			c0.2,0,0.3-0.1,0.4-0.2c0.1-0.1,0.2-0.3,0.2-0.5c0-0.2-0.1-0.4-0.2-0.5c-0.1-0.1-0.3-0.2-0.4-0.2c-0.2,0-0.3,0.1-0.4,0.2
			C78,82.9,78,83,78,83.2z M78.1,81.4c0,0.2,0,0.3,0.1,0.4c0.1,0.1,0.2,0.1,0.4,0.1c0.2,0,0.3,0,0.4-0.1s0.1-0.2,0.1-0.4
			c0-0.2,0-0.3-0.1-0.4s-0.2-0.1-0.4-0.1c-0.2,0-0.3,0-0.4,0.1S78.1,81.2,78.1,81.4z"/>
		<path class="st2" d="M80.5,83.4l0.8-0.1c0,0.2,0.1,0.4,0.2,0.5c0.1,0.1,0.2,0.2,0.4,0.2c0.2,0,0.3-0.1,0.4-0.2
			c0.1-0.1,0.2-0.3,0.2-0.5c0-0.2-0.1-0.4-0.2-0.5c-0.1-0.1-0.2-0.2-0.4-0.2c-0.1,0-0.2,0-0.4,0.1l0.1-0.7c0.2,0,0.4,0,0.5-0.1
			s0.2-0.2,0.2-0.4c0-0.1,0-0.3-0.1-0.3s-0.2-0.1-0.3-0.1c-0.1,0-0.3,0-0.4,0.1c-0.1,0.1-0.2,0.2-0.2,0.4l-0.8-0.1
			c0.1-0.3,0.1-0.5,0.2-0.6c0.1-0.2,0.3-0.3,0.4-0.4s0.4-0.1,0.6-0.1c0.4,0,0.7,0.1,1,0.4c0.2,0.2,0.3,0.4,0.3,0.7
			c0,0.4-0.2,0.7-0.6,0.9c0.2,0.1,0.4,0.2,0.6,0.4s0.2,0.4,0.2,0.7c0,0.4-0.1,0.7-0.4,1c-0.3,0.3-0.6,0.4-1,0.4
			c-0.4,0-0.7-0.1-1-0.3C80.6,84,80.5,83.7,80.5,83.4z"/>
		<path class="st2" d="M83.8,81.3c0-0.4,0.1-0.7,0.2-0.8s0.4-0.3,0.7-0.3c0.3,0,0.5,0.1,0.7,0.3c0.2,0.2,0.3,0.5,0.3,0.8
			c0,0.4-0.1,0.7-0.3,0.8s-0.4,0.3-0.7,0.3c-0.3,0-0.5-0.1-0.7-0.3C83.9,81.9,83.8,81.7,83.8,81.3z M84.4,81.3c0,0.3,0,0.5,0.1,0.6
			c0,0.1,0.1,0.1,0.2,0.1c0.1,0,0.2,0,0.2-0.1c0.1-0.1,0.1-0.3,0.1-0.6s0-0.5-0.1-0.6c0-0.1-0.1-0.1-0.2-0.1c-0.1,0-0.2,0-0.2,0.1
			C84.5,80.8,84.4,81,84.4,81.3z M85.3,84.6h-0.6l2.3-4.5h0.6L85.3,84.6z M86.7,83.5c0-0.4,0.1-0.7,0.2-0.8c0.2-0.2,0.4-0.3,0.7-0.3
			c0.3,0,0.5,0.1,0.7,0.3c0.2,0.2,0.3,0.5,0.3,0.8c0,0.4-0.1,0.7-0.3,0.8s-0.4,0.3-0.7,0.3c-0.3,0-0.5-0.1-0.7-0.3
			S86.7,83.9,86.7,83.5z M87.3,83.5c0,0.3,0,0.5,0.1,0.6c0,0.1,0.1,0.1,0.2,0.1c0.1,0,0.2,0,0.2-0.1c0.1-0.1,0.1-0.3,0.1-0.6
			c0-0.3,0-0.5-0.1-0.6c0-0.1-0.1-0.1-0.2-0.1s-0.2,0-0.2,0.1C87.3,83.1,87.3,83.3,87.3,83.5z"/>
	</g>
	<g>
		<path class="st2" d="M77.7,151.9l0.8-0.1c0,0.2,0.1,0.4,0.2,0.5c0.1,0.1,0.2,0.2,0.4,0.2c0.2,0,0.3-0.1,0.4-0.2
			c0.1-0.1,0.2-0.3,0.2-0.5c0-0.2-0.1-0.4-0.2-0.5c-0.1-0.1-0.2-0.2-0.4-0.2c-0.1,0-0.2,0-0.4,0.1l0.1-0.7c0.2,0,0.4,0,0.5-0.1
			s0.2-0.2,0.2-0.4c0-0.1,0-0.3-0.1-0.3c-0.1-0.1-0.2-0.1-0.3-0.1c-0.1,0-0.3,0-0.4,0.1c-0.1,0.1-0.2,0.2-0.2,0.4l-0.8-0.1
			c0.1-0.3,0.1-0.5,0.2-0.6c0.1-0.2,0.3-0.3,0.4-0.4s0.4-0.1,0.6-0.1c0.4,0,0.7,0.1,1,0.4c0.2,0.2,0.3,0.4,0.3,0.7
			c0,0.4-0.2,0.7-0.6,0.9c0.2,0.1,0.4,0.2,0.6,0.4s0.2,0.4,0.2,0.7c0,0.4-0.1,0.7-0.4,1c-0.3,0.3-0.6,0.4-1,0.4
			c-0.4,0-0.7-0.1-1-0.3S77.7,152.2,77.7,151.9z"/>
		<path class="st2" d="M82.4,148.7c0.4,0,0.7,0.1,1,0.4c0.3,0.3,0.4,0.9,0.4,1.7c0,0.8-0.1,1.4-0.4,1.7c-0.2,0.3-0.5,0.4-1,0.4
			c-0.4,0-0.7-0.2-1-0.5s-0.4-0.9-0.4-1.7c0-0.8,0.1-1.4,0.4-1.7C81.6,148.9,82,148.7,82.4,148.7z M82.4,149.4c-0.1,0-0.2,0-0.3,0.1
			s-0.1,0.2-0.2,0.3c-0.1,0.2-0.1,0.6-0.1,1.1s0,0.8,0.1,1c0,0.2,0.1,0.3,0.2,0.4s0.2,0.1,0.3,0.1c0.1,0,0.2,0,0.3-0.1
			c0.1-0.1,0.1-0.2,0.2-0.3c0.1-0.2,0.1-0.6,0.1-1.1s0-0.8-0.1-1c0-0.2-0.1-0.3-0.2-0.4S82.5,149.4,82.4,149.4z"/>
		<path class="st2" d="M84.3,149.8c0-0.4,0.1-0.7,0.2-0.8s0.4-0.3,0.7-0.3c0.3,0,0.5,0.1,0.7,0.3s0.3,0.5,0.3,0.8
			c0,0.4-0.1,0.7-0.3,0.8s-0.4,0.3-0.7,0.3c-0.3,0-0.5-0.1-0.7-0.3C84.4,150.4,84.3,150.2,84.3,149.8z M84.9,149.8
			c0,0.3,0,0.5,0.1,0.6c0,0.1,0.1,0.1,0.2,0.1c0.1,0,0.2,0,0.2-0.1c0.1-0.1,0.1-0.3,0.1-0.6c0-0.3,0-0.5-0.1-0.6
			c0-0.1-0.1-0.1-0.2-0.1c-0.1,0-0.2,0-0.2,0.1C85,149.3,84.9,149.5,84.9,149.8z M85.8,153.1h-0.6l2.3-4.5h0.6L85.8,153.1z
			 M87.2,152c0-0.4,0.1-0.7,0.2-0.8s0.4-0.3,0.7-0.3c0.3,0,0.5,0.1,0.7,0.3s0.3,0.5,0.3,0.8c0,0.4-0.1,0.7-0.3,0.8s-0.4,0.3-0.7,0.3
			c-0.3,0-0.5-0.1-0.7-0.3S87.2,152.4,87.2,152z M87.8,152c0,0.3,0,0.5,0.1,0.6c0,0.1,0.1,0.1,0.2,0.1c0.1,0,0.2,0,0.2-0.1
			c0.1-0.1,0.1-0.3,0.1-0.6c0-0.3,0-0.5-0.1-0.6c0-0.1-0.1-0.1-0.2-0.1s-0.2,0-0.2,0.1C87.8,151.6,87.8,151.8,87.8,152z"/>
	</g>
	<path class="st3" d="M94.6,168.2V69.5c0-6.6-5.8-12-13-12H69.4c-7.2,0-13,5.4-13,12v98.7H94.6z"/>
	<line class="st3" x1="100.8" y1="168.2" x2="50.2" y2="168.2"/>
	<g>
		<rect x="66.4" y="168.2" class="st3" width="18" height="24.2"/>
		<line class="st3" x1="89.2" y1="192.4" x2="61.8" y2="192.4"/>
	</g>
	<g>
		<path class="st4" d="M80.9,57.4v-11c0-0.7-1.7-1.3-3.7-1.3h-3.5c-2,0-3.7,0.6-3.7,1.3v11H80.9z"/>
		<line class="st4" x1="75.7" y1="21.6" x2="75.7" y2="45"/>
	</g>
	<line class="st5" x1="94.7" y1="98.1" x2="56.1" y2="98.1"/>
	<line class="st5" x1="74.5" y1="81.7" x2="56.2" y2="81.7"/>
	<line class="st5" x1="76.7" y1="115.4" x2="56.1" y2="115.4"/>
	<line class="st5" x1="76.7" y1="132.4" x2="56.2" y2="132.4"/>
	<line class="st5" x1="75" y1="151.4" x2="56.2" y2="151.4"/>
</g>
</svg>
