<?xml version="1.0" encoding="utf-8"?>
<!-- Generator: Adobe Illustrator 19.2.1, SVG Export Plug-In . SVG Version: 6.00 Build 0)  -->
<svg version="1.1" xmlns="http://www.w3.org/2000/svg" xmlns:xlink="http://www.w3.org/1999/xlink" x="0px" y="0px"
	 viewBox="0 0 794 932.7" style="enable-background:new 0 0 794 932.7;" xml:space="preserve">
<style type="text/css">
	.st0{fill:none;stroke:#020202;stroke-width:5;stroke-linecap:round;stroke-linejoin:round;stroke-miterlimit:10;}
	.st1{fill:#2D2D2D;}
	.st2{fill:#F9A42B;}
	.st3{fill:#FFFFFF;}
	.st4{fill:none;stroke:#F9A42B;stroke-width:5;stroke-linecap:round;stroke-linejoin:round;stroke-miterlimit:10;}
	.st5{fill:none;stroke:#F9A42B;stroke-width:7;stroke-linecap:round;stroke-linejoin:round;stroke-miterlimit:10;}
	.st6{fill:none;}
	.st7{fill:#3A3A3A;}
	.st8{font-family:'ArialMT';}
	.st9{font-size:43px;}
</style>
<g id="Layer_1">
</g>
<g id="Layer_2">
	<polyline class="st0" points="676,858.4 92.5,858.4 92.5,188.9 	"/>
	<g>
		<path class="st1" d="M182.4,886.5v1.9h-10.7c0-0.5,0.1-0.9,0.2-1.4c0.3-0.7,0.7-1.5,1.3-2.2c0.6-0.7,1.5-1.5,2.6-2.5
			c1.8-1.4,3-2.6,3.6-3.4c0.6-0.8,0.9-1.6,0.9-2.4c0-0.8-0.3-1.5-0.8-2c-0.6-0.5-1.3-0.8-2.2-0.8c-1,0-1.7,0.3-2.3,0.9
			c-0.6,0.6-0.9,1.4-0.9,2.4l-2.1-0.2c0.1-1.5,0.7-2.7,1.6-3.5c0.9-0.8,2.1-1.2,3.7-1.2c1.6,0,2.8,0.4,3.7,1.3
			c0.9,0.9,1.4,1.9,1.4,3.2c0,0.7-0.1,1.3-0.4,1.9c-0.3,0.6-0.7,1.3-1.3,2c-0.6,0.7-1.6,1.6-3.1,2.9c-1.2,1-2,1.7-2.3,2
			c-0.3,0.4-0.6,0.7-0.8,1.1H182.4z"/>
		<path class="st1" d="M184.5,880.4c0-1.9,0.2-3.5,0.6-4.6c0.4-1.2,1-2.1,1.8-2.7c0.8-0.6,1.8-1,2.9-1c0.9,0,1.6,0.2,2.3,0.5
			c0.7,0.4,1.2,0.9,1.6,1.5c0.4,0.7,0.8,1.5,1,2.4c0.2,1,0.4,2.2,0.4,3.8c0,1.9-0.2,3.4-0.6,4.6c-0.4,1.2-1,2.1-1.8,2.7
			c-0.8,0.6-1.8,1-3,1c-1.6,0-2.8-0.6-3.7-1.7C185.1,885.7,184.5,883.5,184.5,880.4z M186.6,880.4c0,2.7,0.3,4.4,0.9,5.3
			s1.4,1.3,2.3,1.3c0.9,0,1.7-0.4,2.3-1.3c0.6-0.9,0.9-2.7,0.9-5.3c0-2.7-0.3-4.5-0.9-5.3c-0.6-0.9-1.4-1.3-2.3-1.3
			c-0.9,0-1.6,0.4-2.2,1.2C186.9,875.9,186.6,877.7,186.6,880.4z"/>
		<path class="st1" d="M204.7,888.4h-2v-12.7c-0.5,0.5-1.1,0.9-1.9,1.4c-0.8,0.5-1.5,0.8-2.1,1v-1.9c1.1-0.5,2.1-1.2,2.9-1.9
			c0.8-0.7,1.4-1.5,1.8-2.2h1.3V888.4z"/>
		<path class="st1" d="M216.2,888.4v-3.9h-7.1v-1.8l7.4-10.5h1.6v10.5h2.2v1.8h-2.2v3.9H216.2z M216.2,882.7v-7.3l-5.1,7.3H216.2z"
			/>
	</g>
	<g>
		<path class="st1" d="M53.4,758.2l2.1-0.2c0.2,1,0.5,1.8,1.1,2.3s1.2,0.8,2,0.8c1,0,1.8-0.4,2.4-1.1c0.7-0.7,1-1.7,1-2.9
			c0-1.1-0.3-2-1-2.7c-0.6-0.7-1.5-1-2.5-1c-0.6,0-1.2,0.1-1.7,0.4c-0.5,0.3-0.9,0.7-1.2,1.1l-1.9-0.2l1.6-8.4h8.1v1.9h-6.5
			l-0.9,4.4c1-0.7,2-1,3.1-1c1.4,0,2.6,0.5,3.6,1.5c1,1,1.5,2.2,1.5,3.8c0,1.5-0.4,2.7-1.3,3.8c-1,1.3-2.5,2-4.3,2
			c-1.5,0-2.7-0.4-3.6-1.2C54.1,760.6,53.5,759.5,53.4,758.2z"/>
		<path class="st1" d="M66,754.4c0-1.9,0.2-3.5,0.6-4.6c0.4-1.2,1-2.1,1.8-2.7c0.8-0.6,1.8-1,2.9-1c0.9,0,1.6,0.2,2.3,0.5
			c0.7,0.4,1.2,0.9,1.6,1.5c0.4,0.7,0.8,1.5,1,2.4c0.2,1,0.4,2.2,0.4,3.8c0,1.9-0.2,3.4-0.6,4.6c-0.4,1.2-1,2.1-1.8,2.7
			c-0.8,0.6-1.8,1-3,1c-1.6,0-2.8-0.6-3.7-1.7C66.6,759.7,66,757.5,66,754.4z M68.1,754.4c0,2.7,0.3,4.4,0.9,5.3
			c0.6,0.9,1.4,1.3,2.3,1.3c0.9,0,1.7-0.4,2.3-1.3c0.6-0.9,0.9-2.7,0.9-5.3c0-2.7-0.3-4.5-0.9-5.3c-0.6-0.9-1.4-1.3-2.3-1.3
			c-0.9,0-1.6,0.4-2.2,1.2C68.4,749.9,68.1,751.7,68.1,754.4z"/>
	</g>
	<g>
		<path class="st1" d="M62.5,842.3c0-1.9,0.2-3.5,0.6-4.6c0.4-1.2,1-2.1,1.8-2.7c0.8-0.6,1.8-1,2.9-1c0.9,0,1.6,0.2,2.3,0.5
			c0.7,0.4,1.2,0.9,1.6,1.5c0.4,0.7,0.8,1.5,1,2.4c0.2,1,0.4,2.2,0.4,3.8c0,1.9-0.2,3.4-0.6,4.6c-0.4,1.2-1,2.1-1.8,2.7
			c-0.8,0.6-1.8,1-3,1c-1.6,0-2.8-0.6-3.7-1.7C63,847.5,62.5,845.3,62.5,842.3z M64.5,842.3c0,2.7,0.3,4.4,0.9,5.3
			c0.6,0.9,1.4,1.3,2.3,1.3c0.9,0,1.7-0.4,2.3-1.3c0.6-0.9,0.9-2.7,0.9-5.3c0-2.7-0.3-4.5-0.9-5.3c-0.6-0.9-1.4-1.3-2.3-1.3
			c-0.9,0-1.6,0.4-2.2,1.2C64.9,837.8,64.5,839.6,64.5,842.3z"/>
	</g>
	<g>
		<path class="st1" d="M50,693.4h-2v-12.7c-0.5,0.5-1.1,0.9-1.9,1.4c-0.8,0.5-1.5,0.8-2.1,1v-1.9c1.1-0.5,2.1-1.2,2.9-1.9
			c0.8-0.7,1.4-1.5,1.8-2.2H50V693.4z"/>
		<path class="st1" d="M55.1,685.3c0-1.9,0.2-3.5,0.6-4.6c0.4-1.2,1-2.1,1.8-2.7c0.8-0.6,1.8-1,2.9-1c0.9,0,1.6,0.2,2.3,0.5
			c0.7,0.4,1.2,0.9,1.6,1.5c0.4,0.7,0.8,1.5,1,2.4c0.2,1,0.4,2.2,0.4,3.8c0,1.9-0.2,3.4-0.6,4.6c-0.4,1.2-1,2.1-1.8,2.7
			c-0.8,0.6-1.8,1-3,1c-1.6,0-2.8-0.6-3.7-1.7C55.6,690.6,55.1,688.4,55.1,685.3z M57.1,685.3c0,2.7,0.3,4.4,0.9,5.3
			s1.4,1.3,2.3,1.3c0.9,0,1.7-0.4,2.3-1.3c0.6-0.9,0.9-2.7,0.9-5.3c0-2.7-0.3-4.5-0.9-5.3c-0.6-0.9-1.4-1.3-2.3-1.3
			c-0.9,0-1.6,0.4-2.2,1.2C57.5,680.8,57.1,682.7,57.1,685.3z"/>
		<path class="st1" d="M67.7,685.3c0-1.9,0.2-3.5,0.6-4.6c0.4-1.2,1-2.1,1.8-2.7c0.8-0.6,1.8-1,2.9-1c0.9,0,1.6,0.2,2.3,0.5
			c0.7,0.4,1.2,0.9,1.6,1.5c0.4,0.7,0.8,1.5,1,2.4c0.2,1,0.4,2.2,0.4,3.8c0,1.9-0.2,3.4-0.6,4.6c-0.4,1.2-1,2.1-1.8,2.7
			c-0.8,0.6-1.8,1-3,1c-1.6,0-2.8-0.6-3.7-1.7C68.3,690.6,67.7,688.4,67.7,685.3z M69.8,685.3c0,2.7,0.3,4.4,0.9,5.3
			c0.6,0.9,1.4,1.3,2.3,1.3c0.9,0,1.7-0.4,2.3-1.3c0.6-0.9,0.9-2.7,0.9-5.3c0-2.7-0.3-4.5-0.9-5.3c-0.6-0.9-1.4-1.3-2.3-1.3
			c-0.9,0-1.6,0.4-2.2,1.2C70.1,680.8,69.8,682.7,69.8,685.3z"/>
	</g>
	<g>
		<path class="st1" d="M50,624.3h-2v-12.7c-0.5,0.5-1.1,0.9-1.9,1.4c-0.8,0.5-1.5,0.8-2.1,1V612c1.1-0.5,2.1-1.2,2.9-1.9
			c0.8-0.7,1.4-1.5,1.8-2.2H50V624.3z"/>
		<path class="st1" d="M55.1,620l2.1-0.2c0.2,1,0.5,1.8,1.1,2.3s1.2,0.8,2,0.8c1,0,1.8-0.4,2.4-1.1c0.7-0.7,1-1.7,1-2.9
			c0-1.1-0.3-2-1-2.7c-0.6-0.7-1.5-1-2.5-1c-0.6,0-1.2,0.1-1.7,0.4c-0.5,0.3-0.9,0.7-1.2,1.1l-1.9-0.2l1.6-8.4h8.1v1.9h-6.5
			l-0.9,4.4c1-0.7,2-1,3.1-1c1.4,0,2.6,0.5,3.6,1.5c1,1,1.5,2.2,1.5,3.8c0,1.5-0.4,2.7-1.3,3.8c-1,1.3-2.5,2-4.3,2
			c-1.5,0-2.7-0.4-3.6-1.2C55.8,622.5,55.2,621.4,55.1,620z"/>
		<path class="st1" d="M67.7,616.3c0-1.9,0.2-3.5,0.6-4.6c0.4-1.2,1-2.1,1.8-2.7c0.8-0.6,1.8-1,2.9-1c0.9,0,1.6,0.2,2.3,0.5
			c0.7,0.4,1.2,0.9,1.6,1.5c0.4,0.7,0.8,1.5,1,2.4c0.2,1,0.4,2.2,0.4,3.8c0,1.9-0.2,3.4-0.6,4.6c-0.4,1.2-1,2.1-1.8,2.7
			c-0.8,0.6-1.8,1-3,1c-1.6,0-2.8-0.6-3.7-1.7C68.3,621.5,67.7,619.3,67.7,616.3z M69.8,616.3c0,2.7,0.3,4.4,0.9,5.3
			c0.6,0.9,1.4,1.3,2.3,1.3c0.9,0,1.7-0.4,2.3-1.3c0.6-0.9,0.9-2.7,0.9-5.3c0-2.7-0.3-4.5-0.9-5.3c-0.6-0.9-1.4-1.3-2.3-1.3
			c-0.9,0-1.6,0.4-2.2,1.2C70.1,611.8,69.8,613.6,69.8,616.3z"/>
	</g>
	<g>
		<path class="st1" d="M53.2,553.3v1.9H42.5c0-0.5,0.1-0.9,0.2-1.4c0.3-0.7,0.7-1.5,1.3-2.2c0.6-0.7,1.5-1.5,2.6-2.5
			c1.8-1.4,3-2.6,3.6-3.4c0.6-0.8,0.9-1.6,0.9-2.4c0-0.8-0.3-1.5-0.8-2c-0.6-0.5-1.3-0.8-2.2-0.8c-1,0-1.7,0.3-2.3,0.9
			c-0.6,0.6-0.9,1.4-0.9,2.4l-2.1-0.2c0.1-1.5,0.7-2.7,1.6-3.5c0.9-0.8,2.1-1.2,3.7-1.2c1.6,0,2.8,0.4,3.7,1.3
			c0.9,0.9,1.4,1.9,1.4,3.2c0,0.7-0.1,1.3-0.4,1.9c-0.3,0.6-0.7,1.3-1.3,2c-0.6,0.7-1.6,1.6-3.1,2.9c-1.2,1-2,1.7-2.3,2
			c-0.3,0.4-0.6,0.7-0.8,1.1H53.2z"/>
		<path class="st1" d="M55.4,547.2c0-1.9,0.2-3.5,0.6-4.6c0.4-1.2,1-2.1,1.8-2.7c0.8-0.6,1.8-1,2.9-1c0.9,0,1.6,0.2,2.3,0.5
			c0.7,0.4,1.2,0.9,1.6,1.5c0.4,0.7,0.8,1.5,1,2.4c0.2,1,0.4,2.2,0.4,3.8c0,1.9-0.2,3.4-0.6,4.6c-0.4,1.2-1,2.1-1.8,2.7
			c-0.8,0.6-1.8,1-3,1c-1.6,0-2.8-0.6-3.7-1.7C55.9,552.5,55.4,550.3,55.4,547.2z M57.4,547.2c0,2.7,0.3,4.4,0.9,5.3
			s1.4,1.3,2.3,1.3c0.9,0,1.7-0.4,2.3-1.3c0.6-0.9,0.9-2.7,0.9-5.3c0-2.7-0.3-4.5-0.9-5.3c-0.6-0.9-1.4-1.3-2.3-1.3
			c-0.9,0-1.6,0.4-2.2,1.2C57.7,542.7,57.4,544.5,57.4,547.2z"/>
		<path class="st1" d="M68,547.2c0-1.9,0.2-3.5,0.6-4.6c0.4-1.2,1-2.1,1.8-2.7c0.8-0.6,1.8-1,2.9-1c0.9,0,1.6,0.2,2.3,0.5
			c0.7,0.4,1.2,0.9,1.6,1.5c0.4,0.7,0.8,1.5,1,2.4c0.2,1,0.4,2.2,0.4,3.8c0,1.9-0.2,3.4-0.6,4.6c-0.4,1.2-1,2.1-1.8,2.7
			c-0.8,0.6-1.8,1-3,1c-1.6,0-2.8-0.6-3.7-1.7C68.5,552.5,68,550.3,68,547.2z M70,547.2c0,2.7,0.3,4.4,0.9,5.3s1.4,1.3,2.3,1.3
			c0.9,0,1.7-0.4,2.3-1.3c0.6-0.9,0.9-2.7,0.9-5.3c0-2.7-0.3-4.5-0.9-5.3c-0.6-0.9-1.4-1.3-2.3-1.3c-0.9,0-1.6,0.4-2.2,1.2
			C70.4,542.7,70,544.5,70,547.2z"/>
	</g>
	<g>
		<path class="st1" d="M53.2,484.2v1.9H42.5c0-0.5,0.1-0.9,0.2-1.4c0.3-0.7,0.7-1.5,1.3-2.2c0.6-0.7,1.5-1.5,2.6-2.5
			c1.8-1.4,3-2.6,3.6-3.4c0.6-0.8,0.9-1.6,0.9-2.4c0-0.8-0.3-1.5-0.8-2c-0.6-0.5-1.3-0.8-2.2-0.8c-1,0-1.7,0.3-2.3,0.9
			s-0.9,1.4-0.9,2.4l-2.1-0.2c0.1-1.5,0.7-2.7,1.6-3.5c0.9-0.8,2.1-1.2,3.7-1.2c1.6,0,2.8,0.4,3.7,1.3c0.9,0.9,1.4,1.9,1.4,3.2
			c0,0.7-0.1,1.3-0.4,1.9c-0.3,0.6-0.7,1.3-1.3,2c-0.6,0.7-1.6,1.6-3.1,2.9c-1.2,1-2,1.7-2.3,2c-0.3,0.4-0.6,0.7-0.8,1.1H53.2z"/>
		<path class="st1" d="M55.4,481.9l2.1-0.2c0.2,1,0.5,1.8,1.1,2.3c0.6,0.5,1.2,0.8,2,0.8c1,0,1.8-0.4,2.4-1.1c0.7-0.7,1-1.7,1-2.9
			c0-1.1-0.3-2-1-2.7c-0.6-0.7-1.5-1-2.5-1c-0.6,0-1.2,0.1-1.7,0.4c-0.5,0.3-0.9,0.7-1.2,1.1l-1.9-0.2l1.6-8.4h8.1v1.9h-6.5
			l-0.9,4.4c1-0.7,2-1,3.1-1c1.4,0,2.6,0.5,3.6,1.5c1,1,1.5,2.2,1.5,3.8c0,1.5-0.4,2.7-1.3,3.8c-1,1.3-2.5,2-4.3,2
			c-1.5,0-2.7-0.4-3.6-1.2C56,484.4,55.5,483.3,55.4,481.9z"/>
		<path class="st1" d="M68,478.1c0-1.9,0.2-3.5,0.6-4.6c0.4-1.2,1-2.1,1.8-2.7c0.8-0.6,1.8-1,2.9-1c0.9,0,1.6,0.2,2.3,0.5
			c0.7,0.4,1.2,0.9,1.6,1.5c0.4,0.7,0.8,1.5,1,2.4c0.2,1,0.4,2.2,0.4,3.8c0,1.9-0.2,3.4-0.6,4.6c-0.4,1.2-1,2.1-1.8,2.7
			c-0.8,0.6-1.8,1-3,1c-1.6,0-2.8-0.6-3.7-1.7C68.5,483.4,68,481.2,68,478.1z M70,478.1c0,2.7,0.3,4.4,0.9,5.3
			c0.6,0.9,1.4,1.3,2.3,1.3c0.9,0,1.7-0.4,2.3-1.3c0.6-0.9,0.9-2.7,0.9-5.3c0-2.7-0.3-4.5-0.9-5.3c-0.6-0.9-1.4-1.3-2.3-1.3
			c-0.9,0-1.6,0.4-2.2,1.2C70.4,473.6,70,475.5,70,478.1z"/>
	</g>
	<g>
		<path class="st1" d="M42.7,412.8l2-0.3c0.2,1.1,0.6,1.9,1.2,2.4c0.6,0.5,1.2,0.7,2,0.7c0.9,0,1.7-0.3,2.4-1c0.6-0.7,1-1.5,1-2.4
			c0-0.9-0.3-1.7-0.9-2.3c-0.6-0.6-1.4-0.9-2.3-0.9c-0.4,0-0.8,0.1-1.4,0.2l0.2-1.8c0.1,0,0.2,0,0.3,0c0.9,0,1.6-0.2,2.3-0.7
			s1-1.1,1-2.1c0-0.7-0.2-1.3-0.7-1.8c-0.5-0.5-1.1-0.7-1.9-0.7c-0.8,0-1.4,0.2-1.9,0.7c-0.5,0.5-0.9,1.2-1,2.2l-2-0.4
			c0.2-1.3,0.8-2.4,1.7-3.1c0.9-0.7,1.9-1.1,3.2-1.1c0.9,0,1.7,0.2,2.5,0.6c0.7,0.4,1.3,0.9,1.7,1.6c0.4,0.7,0.6,1.4,0.6,2.1
			c0,0.7-0.2,1.3-0.6,1.9c-0.4,0.6-0.9,1-1.7,1.4c1,0.2,1.7,0.7,2.2,1.4c0.5,0.7,0.8,1.6,0.8,2.6c0,1.4-0.5,2.6-1.6,3.6
			c-1,1-2.3,1.5-3.9,1.5c-1.4,0-2.6-0.4-3.6-1.3S42.8,414.1,42.7,412.8z"/>
		<path class="st1" d="M55.3,409.1c0-1.9,0.2-3.5,0.6-4.6c0.4-1.2,1-2.1,1.8-2.7c0.8-0.6,1.8-1,2.9-1c0.9,0,1.6,0.2,2.3,0.5
			c0.7,0.4,1.2,0.9,1.6,1.5c0.4,0.7,0.8,1.5,1,2.4c0.2,1,0.4,2.2,0.4,3.8c0,1.9-0.2,3.4-0.6,4.6c-0.4,1.2-1,2.1-1.8,2.7
			c-0.8,0.6-1.8,1-3,1c-1.6,0-2.8-0.6-3.7-1.7C55.8,414.3,55.3,412.1,55.3,409.1z M57.4,409.1c0,2.7,0.3,4.4,0.9,5.3
			c0.6,0.9,1.4,1.3,2.3,1.3c0.9,0,1.7-0.4,2.3-1.3c0.6-0.9,0.9-2.7,0.9-5.3c0-2.7-0.3-4.5-0.9-5.3c-0.6-0.9-1.4-1.3-2.3-1.3
			c-0.9,0-1.6,0.4-2.2,1.2C57.7,404.6,57.4,406.4,57.4,409.1z"/>
		<path class="st1" d="M67.9,409.1c0-1.9,0.2-3.5,0.6-4.6c0.4-1.2,1-2.1,1.8-2.7c0.8-0.6,1.8-1,2.9-1c0.9,0,1.6,0.2,2.3,0.5
			c0.7,0.4,1.2,0.9,1.6,1.5c0.4,0.7,0.8,1.5,1,2.4c0.2,1,0.4,2.2,0.4,3.8c0,1.9-0.2,3.4-0.6,4.6c-0.4,1.2-1,2.1-1.8,2.7
			c-0.8,0.6-1.8,1-3,1c-1.6,0-2.8-0.6-3.7-1.7C68.5,414.3,67.9,412.1,67.9,409.1z M70,409.1c0,2.7,0.3,4.4,0.9,5.3
			c0.6,0.9,1.4,1.3,2.3,1.3c0.9,0,1.7-0.4,2.3-1.3c0.6-0.9,0.9-2.7,0.9-5.3c0-2.7-0.3-4.5-0.9-5.3c-0.6-0.9-1.4-1.3-2.3-1.3
			c-0.9,0-1.6,0.4-2.2,1.2C70.3,404.6,70,406.4,70,409.1z"/>
	</g>
	<g>
		<path class="st1" d="M42.7,343.7l2-0.3c0.2,1.1,0.6,1.9,1.2,2.4c0.6,0.5,1.2,0.7,2,0.7c0.9,0,1.7-0.3,2.4-1c0.6-0.7,1-1.5,1-2.4
			c0-0.9-0.3-1.7-0.9-2.3c-0.6-0.6-1.4-0.9-2.3-0.9c-0.4,0-0.8,0.1-1.4,0.2l0.2-1.8c0.1,0,0.2,0,0.3,0c0.9,0,1.6-0.2,2.3-0.7
			s1-1.1,1-2.1c0-0.7-0.2-1.3-0.7-1.8c-0.5-0.5-1.1-0.7-1.9-0.7c-0.8,0-1.4,0.2-1.9,0.7c-0.5,0.5-0.9,1.2-1,2.2l-2-0.4
			c0.2-1.3,0.8-2.4,1.7-3.1c0.9-0.7,1.9-1.1,3.2-1.1c0.9,0,1.7,0.2,2.5,0.6c0.7,0.4,1.3,0.9,1.7,1.6c0.4,0.7,0.6,1.4,0.6,2.1
			c0,0.7-0.2,1.3-0.6,1.9c-0.4,0.6-0.9,1-1.7,1.4c1,0.2,1.7,0.7,2.2,1.4c0.5,0.7,0.8,1.6,0.8,2.6c0,1.4-0.5,2.6-1.6,3.6
			c-1,1-2.3,1.5-3.9,1.5c-1.4,0-2.6-0.4-3.6-1.3S42.8,345.1,42.7,343.7z"/>
		<path class="st1" d="M55.3,343.8l2.1-0.2c0.2,1,0.5,1.8,1.1,2.3c0.6,0.5,1.2,0.8,2,0.8c1,0,1.8-0.4,2.4-1.1c0.7-0.7,1-1.7,1-2.9
			c0-1.1-0.3-2-1-2.7c-0.6-0.7-1.5-1-2.5-1c-0.6,0-1.2,0.1-1.7,0.4c-0.5,0.3-0.9,0.7-1.2,1.1l-1.9-0.2l1.6-8.4h8.1v1.9h-6.5
			l-0.9,4.4c1-0.7,2-1,3.1-1c1.4,0,2.6,0.5,3.6,1.5c1,1,1.5,2.2,1.5,3.8c0,1.5-0.4,2.7-1.3,3.8c-1,1.3-2.5,2-4.3,2
			c-1.5,0-2.7-0.4-3.6-1.2C56,346.2,55.4,345.1,55.3,343.8z"/>
		<path class="st1" d="M67.9,340c0-1.9,0.2-3.5,0.6-4.6c0.4-1.2,1-2.1,1.8-2.7c0.8-0.6,1.8-1,2.9-1c0.9,0,1.6,0.2,2.3,0.5
			c0.7,0.4,1.2,0.9,1.6,1.5c0.4,0.7,0.8,1.5,1,2.4c0.2,1,0.4,2.2,0.4,3.8c0,1.9-0.2,3.4-0.6,4.6c-0.4,1.2-1,2.1-1.8,2.7
			c-0.8,0.6-1.8,1-3,1c-1.6,0-2.8-0.6-3.7-1.7C68.5,345.3,67.9,343,67.9,340z M70,340c0,2.7,0.3,4.4,0.9,5.3
			c0.6,0.9,1.4,1.3,2.3,1.3c0.9,0,1.7-0.4,2.3-1.3c0.6-0.9,0.9-2.7,0.9-5.3c0-2.7-0.3-4.5-0.9-5.3c-0.6-0.9-1.4-1.3-2.3-1.3
			c-0.9,0-1.6,0.4-2.2,1.2C70.3,335.5,70,337.3,70,340z"/>
	</g>
	<g>
		<path class="st1" d="M49.2,278.9v-3.9h-7.1v-1.8l7.4-10.5h1.6v10.5h2.2v1.8h-2.2v3.9H49.2z M49.2,273.2v-7.3l-5.1,7.3H49.2z"/>
		<path class="st1" d="M55.4,270.9c0-1.9,0.2-3.5,0.6-4.6c0.4-1.2,1-2.1,1.8-2.7c0.8-0.6,1.8-1,2.9-1c0.9,0,1.6,0.2,2.3,0.5
			c0.7,0.4,1.2,0.9,1.6,1.5c0.4,0.7,0.8,1.5,1,2.4c0.2,1,0.4,2.2,0.4,3.8c0,1.9-0.2,3.4-0.6,4.6c-0.4,1.2-1,2.1-1.8,2.7
			c-0.8,0.6-1.8,1-3,1c-1.6,0-2.8-0.6-3.7-1.7C55.9,276.2,55.4,274,55.4,270.9z M57.5,270.9c0,2.7,0.3,4.4,0.9,5.3
			c0.6,0.9,1.4,1.3,2.3,1.3c0.9,0,1.7-0.4,2.3-1.3c0.6-0.9,0.9-2.7,0.9-5.3c0-2.7-0.3-4.5-0.9-5.3c-0.6-0.9-1.4-1.3-2.3-1.3
			c-0.9,0-1.6,0.4-2.2,1.2C57.8,266.4,57.5,268.3,57.5,270.9z"/>
		<path class="st1" d="M68,270.9c0-1.9,0.2-3.5,0.6-4.6c0.4-1.2,1-2.1,1.8-2.7c0.8-0.6,1.8-1,2.9-1c0.9,0,1.6,0.2,2.3,0.5
			c0.7,0.4,1.2,0.9,1.6,1.5c0.4,0.7,0.8,1.5,1,2.4c0.2,1,0.4,2.2,0.4,3.8c0,1.9-0.2,3.4-0.6,4.6c-0.4,1.2-1,2.1-1.8,2.7
			c-0.8,0.6-1.8,1-3,1c-1.6,0-2.8-0.6-3.7-1.7C68.6,276.2,68,274,68,270.9z M70.1,270.9c0,2.7,0.3,4.4,0.9,5.3
			c0.6,0.9,1.4,1.3,2.3,1.3c0.9,0,1.7-0.4,2.3-1.3c0.6-0.9,0.9-2.7,0.9-5.3c0-2.7-0.3-4.5-0.9-5.3c-0.6-0.9-1.4-1.3-2.3-1.3
			c-0.9,0-1.6,0.4-2.2,1.2C70.4,266.4,70.1,268.3,70.1,270.9z"/>
	</g>
	<g>
		<path class="st1" d="M49.2,209.9V206h-7.1v-1.8l7.4-10.5h1.6v10.5h2.2v1.8h-2.2v3.9H49.2z M49.2,204.2v-7.3l-5.1,7.3H49.2z"/>
		<path class="st1" d="M55.4,205.6l2.1-0.2c0.2,1,0.5,1.8,1.1,2.3c0.6,0.5,1.2,0.8,2,0.8c1,0,1.8-0.4,2.4-1.1c0.7-0.7,1-1.7,1-2.9
			c0-1.1-0.3-2-1-2.7c-0.6-0.7-1.5-1-2.5-1c-0.6,0-1.2,0.1-1.7,0.4c-0.5,0.3-0.9,0.7-1.2,1.1l-1.9-0.2l1.6-8.4h8.1v1.9h-6.5
			l-0.9,4.4c1-0.7,2-1,3.1-1c1.4,0,2.6,0.5,3.6,1.5c1,1,1.5,2.2,1.5,3.8c0,1.5-0.4,2.7-1.3,3.8c-1,1.3-2.5,2-4.3,2
			c-1.5,0-2.7-0.4-3.6-1.2C56.1,208.1,55.5,207,55.4,205.6z"/>
		<path class="st1" d="M68,201.9c0-1.9,0.2-3.5,0.6-4.6c0.4-1.2,1-2.1,1.8-2.7c0.8-0.6,1.8-1,2.9-1c0.9,0,1.6,0.2,2.3,0.5
			c0.7,0.4,1.2,0.9,1.6,1.5c0.4,0.7,0.8,1.5,1,2.4c0.2,1,0.4,2.2,0.4,3.8c0,1.9-0.2,3.4-0.6,4.6c-0.4,1.2-1,2.1-1.8,2.7
			c-0.8,0.6-1.8,1-3,1c-1.6,0-2.8-0.6-3.7-1.7C68.6,207.1,68,204.9,68,201.9z M70.1,201.9c0,2.7,0.3,4.4,0.9,5.3s1.4,1.3,2.3,1.3
			c0.9,0,1.7-0.4,2.3-1.3c0.6-0.9,0.9-2.7,0.9-5.3c0-2.7-0.3-4.5-0.9-5.3c-0.6-0.9-1.4-1.3-2.3-1.3c-0.9,0-1.6,0.4-2.2,1.2
			C70.4,197.4,70.1,199.2,70.1,201.9z"/>
	</g>
	<g>
		<path class="st1" d="M314.5,886.5v1.9h-10.7c0-0.5,0.1-0.9,0.2-1.4c0.3-0.7,0.7-1.5,1.3-2.2c0.6-0.7,1.5-1.5,2.6-2.5
			c1.8-1.4,3-2.6,3.6-3.4c0.6-0.8,0.9-1.6,0.9-2.4c0-0.8-0.3-1.5-0.8-2c-0.6-0.5-1.3-0.8-2.2-0.8c-1,0-1.7,0.3-2.3,0.9
			c-0.6,0.6-0.9,1.4-0.9,2.4l-2.1-0.2c0.1-1.5,0.7-2.7,1.6-3.5c0.9-0.8,2.1-1.2,3.7-1.2c1.6,0,2.8,0.4,3.7,1.3
			c0.9,0.9,1.4,1.9,1.4,3.2c0,0.7-0.1,1.3-0.4,1.9c-0.3,0.6-0.7,1.3-1.3,2c-0.6,0.7-1.6,1.6-3.1,2.9c-1.2,1-2,1.7-2.3,2
			c-0.3,0.4-0.6,0.7-0.8,1.1H314.5z"/>
		<path class="st1" d="M316.7,880.4c0-1.9,0.2-3.5,0.6-4.6c0.4-1.2,1-2.1,1.8-2.7c0.8-0.6,1.8-1,2.9-1c0.9,0,1.6,0.2,2.3,0.5
			c0.7,0.4,1.2,0.9,1.6,1.5c0.4,0.7,0.8,1.5,1,2.4c0.2,1,0.4,2.2,0.4,3.8c0,1.9-0.2,3.4-0.6,4.6c-0.4,1.2-1,2.1-1.8,2.7
			c-0.8,0.6-1.8,1-3,1c-1.6,0-2.8-0.6-3.7-1.7C317.2,885.7,316.7,883.5,316.7,880.4z M318.7,880.4c0,2.7,0.3,4.4,0.9,5.3
			c0.6,0.9,1.4,1.3,2.3,1.3c0.9,0,1.7-0.4,2.3-1.3c0.6-0.9,0.9-2.7,0.9-5.3c0-2.7-0.3-4.5-0.9-5.3c-0.6-0.9-1.4-1.3-2.3-1.3
			c-0.9,0-1.6,0.4-2.2,1.2C319.1,875.9,318.7,877.7,318.7,880.4z"/>
		<path class="st1" d="M336.8,888.4h-2v-12.7c-0.5,0.5-1.1,0.9-1.9,1.4c-0.8,0.5-1.5,0.8-2.1,1v-1.9c1.1-0.5,2.1-1.2,2.9-1.9
			c0.8-0.7,1.4-1.5,1.8-2.2h1.3V888.4z"/>
		<path class="st1" d="M341.9,884.2l2.1-0.2c0.2,1,0.5,1.8,1.1,2.3s1.2,0.8,2,0.8c1,0,1.8-0.4,2.4-1.1c0.7-0.7,1-1.7,1-2.9
			c0-1.1-0.3-2-1-2.7c-0.6-0.7-1.5-1-2.5-1c-0.6,0-1.2,0.1-1.7,0.4c-0.5,0.3-0.9,0.7-1.2,1.1l-1.9-0.2l1.6-8.4h8.1v1.9h-6.5
			l-0.9,4.4c1-0.7,2-1,3.1-1c1.4,0,2.6,0.5,3.6,1.5c1,1,1.5,2.2,1.5,3.8c0,1.5-0.4,2.7-1.3,3.8c-1,1.3-2.5,2-4.3,2
			c-1.5,0-2.7-0.4-3.6-1.2C342.6,886.6,342.1,885.5,341.9,884.2z"/>
	</g>
	<g>
		<path class="st1" d="M443.1,886.5v1.9h-10.7c0-0.5,0.1-0.9,0.2-1.4c0.3-0.7,0.7-1.5,1.3-2.2c0.6-0.7,1.5-1.5,2.6-2.5
			c1.8-1.4,3-2.6,3.6-3.4c0.6-0.8,0.9-1.6,0.9-2.4c0-0.8-0.3-1.5-0.8-2c-0.6-0.5-1.3-0.8-2.2-0.8c-1,0-1.7,0.3-2.3,0.9
			c-0.6,0.6-0.9,1.4-0.9,2.4l-2.1-0.2c0.1-1.5,0.7-2.7,1.6-3.5c0.9-0.8,2.1-1.2,3.7-1.2c1.6,0,2.8,0.4,3.7,1.3
			c0.9,0.9,1.4,1.9,1.4,3.2c0,0.7-0.1,1.3-0.4,1.9c-0.3,0.6-0.7,1.3-1.3,2c-0.6,0.7-1.6,1.6-3.1,2.9c-1.2,1-2,1.7-2.3,2
			c-0.3,0.4-0.6,0.7-0.8,1.1H443.1z"/>
		<path class="st1" d="M445.2,880.4c0-1.9,0.2-3.5,0.6-4.6c0.4-1.2,1-2.1,1.8-2.7c0.8-0.6,1.8-1,2.9-1c0.9,0,1.6,0.2,2.3,0.5
			c0.7,0.4,1.2,0.9,1.6,1.5c0.4,0.7,0.8,1.5,1,2.4c0.2,1,0.4,2.2,0.4,3.8c0,1.9-0.2,3.4-0.6,4.6c-0.4,1.2-1,2.1-1.8,2.7
			c-0.8,0.6-1.8,1-3,1c-1.6,0-2.8-0.6-3.7-1.7C445.8,885.7,445.2,883.5,445.2,880.4z M447.3,880.4c0,2.7,0.3,4.4,0.9,5.3
			c0.6,0.9,1.4,1.3,2.3,1.3c0.9,0,1.7-0.4,2.3-1.3c0.6-0.9,0.9-2.7,0.9-5.3c0-2.7-0.3-4.5-0.9-5.3c-0.6-0.9-1.4-1.3-2.3-1.3
			c-0.9,0-1.6,0.4-2.2,1.2C447.6,875.9,447.3,877.7,447.3,880.4z"/>
		<path class="st1" d="M465.4,888.4h-2v-12.7c-0.5,0.5-1.1,0.9-1.9,1.4c-0.8,0.5-1.5,0.8-2.1,1v-1.9c1.1-0.5,2.1-1.2,2.9-1.9
			c0.8-0.7,1.4-1.5,1.8-2.2h1.3V888.4z"/>
		<path class="st1" d="M473.6,879.6c-0.8-0.3-1.4-0.7-1.8-1.3c-0.4-0.6-0.6-1.2-0.6-2c0-1.2,0.4-2.2,1.3-3c0.9-0.8,2-1.2,3.4-1.2
			c1.4,0,2.6,0.4,3.4,1.2c0.9,0.8,1.3,1.8,1.3,3c0,0.8-0.2,1.4-0.6,2c-0.4,0.6-1,1-1.8,1.3c1,0.3,1.8,0.9,2.3,1.6
			c0.5,0.7,0.8,1.6,0.8,2.6c0,1.4-0.5,2.6-1.5,3.5c-1,0.9-2.3,1.4-3.9,1.4s-2.9-0.5-3.9-1.4c-1-1-1.5-2.1-1.5-3.6
			c0-1.1,0.3-1.9,0.8-2.7S472.6,879.9,473.6,879.6z M472.5,883.7c0,0.6,0.1,1.1,0.4,1.7c0.3,0.5,0.7,0.9,1.2,1.2
			c0.5,0.3,1.1,0.4,1.7,0.4c1,0,1.7-0.3,2.4-0.9c0.6-0.6,0.9-1.4,0.9-2.3c0-1-0.3-1.8-1-2.4c-0.6-0.6-1.4-0.9-2.4-0.9
			c-0.9,0-1.7,0.3-2.3,0.9C472.8,882,472.5,882.8,472.5,883.7z M473.2,876.2c0,0.8,0.2,1.4,0.7,1.9c0.5,0.5,1.1,0.7,1.9,0.7
			c0.8,0,1.4-0.2,1.9-0.7c0.5-0.5,0.7-1.1,0.7-1.8c0-0.7-0.3-1.3-0.8-1.8c-0.5-0.5-1.1-0.7-1.9-0.7c-0.8,0-1.4,0.2-1.9,0.7
			C473.4,875,473.2,875.5,473.2,876.2z"/>
	</g>
	<g>
		<path class="st1" d="M577,886.5v1.9h-10.7c0-0.5,0.1-0.9,0.2-1.4c0.3-0.7,0.7-1.5,1.3-2.2c0.6-0.7,1.5-1.5,2.6-2.5
			c1.8-1.4,3-2.6,3.6-3.4c0.6-0.8,0.9-1.6,0.9-2.4c0-0.8-0.3-1.5-0.8-2c-0.6-0.5-1.3-0.8-2.2-0.8c-1,0-1.7,0.3-2.3,0.9
			c-0.6,0.6-0.9,1.4-0.9,2.4l-2.1-0.2c0.1-1.5,0.7-2.7,1.6-3.5c0.9-0.8,2.1-1.2,3.7-1.2c1.6,0,2.8,0.4,3.7,1.3
			c0.9,0.9,1.4,1.9,1.4,3.2c0,0.7-0.1,1.3-0.4,1.9c-0.3,0.6-0.7,1.3-1.3,2c-0.6,0.7-1.6,1.6-3.1,2.9c-1.2,1-2,1.7-2.3,2
			c-0.3,0.4-0.6,0.7-0.8,1.1H577z"/>
		<path class="st1" d="M579.2,880.4c0-1.9,0.2-3.5,0.6-4.6c0.4-1.2,1-2.1,1.8-2.7c0.8-0.6,1.8-1,2.9-1c0.9,0,1.6,0.2,2.3,0.5
			c0.7,0.4,1.2,0.9,1.6,1.5c0.4,0.7,0.8,1.5,1,2.4c0.2,1,0.4,2.2,0.4,3.8c0,1.9-0.2,3.4-0.6,4.6c-0.4,1.2-1,2.1-1.8,2.7
			c-0.8,0.6-1.8,1-3,1c-1.6,0-2.8-0.6-3.7-1.7C579.7,885.7,579.2,883.5,579.2,880.4z M581.2,880.4c0,2.7,0.3,4.4,0.9,5.3
			s1.4,1.3,2.3,1.3c0.9,0,1.7-0.4,2.3-1.3c0.6-0.9,0.9-2.7,0.9-5.3c0-2.7-0.3-4.5-0.9-5.3c-0.6-0.9-1.4-1.3-2.3-1.3
			c-0.9,0-1.6,0.4-2.2,1.2C581.6,875.9,581.2,877.7,581.2,880.4z"/>
		<path class="st1" d="M599.3,888.4h-2v-12.7c-0.5,0.5-1.1,0.9-1.9,1.4c-0.8,0.5-1.5,0.8-2.1,1v-1.9c1.1-0.5,2.1-1.2,2.9-1.9
			c0.8-0.7,1.4-1.5,1.8-2.2h1.3V888.4z"/>
		<path class="st1" d="M604.6,874.3v-1.9h10.5v1.6c-1,1.1-2.1,2.6-3.1,4.4c-1,1.8-1.8,3.7-2.4,5.6c-0.4,1.4-0.7,2.9-0.8,4.5h-2.1
			c0-1.3,0.3-2.8,0.8-4.6c0.5-1.8,1.2-3.6,2.1-5.2c0.9-1.7,1.9-3.1,2.9-4.3H604.6z"/>
	</g>
	<g>
		<rect x="474" y="173.9" class="st2" width="251" height="54"/>
		<g>
			<path class="st3" d="M498.6,210.8v-4H491V205l8.1-10.7h1.8V205h2.4v1.9h-2.4v4H498.6z M498.6,205v-7.5l-5.5,7.5H498.6z"/>
			<path class="st3" d="M513.6,210.8h-2.2v-13c-0.5,0.5-1.2,0.9-2.1,1.4c-0.8,0.5-1.6,0.8-2.3,1.1v-2c1.2-0.5,2.3-1.2,3.2-1.9
				c0.9-0.8,1.5-1.5,1.9-2.2h1.4V210.8z"/>
			<path class="st3" d="M519.3,196.4v-2h11.4v1.6c-1.1,1.1-2.2,2.6-3.3,4.5s-2,3.8-2.6,5.7c-0.4,1.4-0.7,2.9-0.8,4.6h-2.2
				c0-1.3,0.3-2.9,0.8-4.7c0.5-1.8,1.3-3.6,2.2-5.3c1-1.7,2-3.2,3.1-4.3H519.3z"/>
			<path class="st3" d="M544.6,210.8v-14.6h-5.8v-2h14v2H547v14.6H544.6z"/>
			<path class="st3" d="M551.4,204.8c0-2.2,0.7-3.9,2-4.9c1.1-0.9,2.4-1.3,4-1.3c1.8,0,3.2,0.5,4.3,1.6c1.1,1.1,1.7,2.6,1.7,4.5
				c0,1.5-0.2,2.8-0.7,3.6c-0.5,0.9-1.2,1.6-2.2,2.1s-2,0.7-3.1,0.7c-1.8,0-3.2-0.5-4.3-1.6C552,208.4,551.4,206.8,551.4,204.8z
				 M553.6,204.8c0,1.5,0.4,2.7,1.1,3.5c0.7,0.8,1.6,1.1,2.7,1.1c1.1,0,2-0.4,2.7-1.2c0.7-0.8,1.1-1.9,1.1-3.5
				c0-1.5-0.4-2.6-1.1-3.4c-0.7-0.8-1.6-1.1-2.7-1.1c-1.1,0-2,0.4-2.7,1.1C554,202.1,553.6,203.3,553.6,204.8z"/>
			<path class="st3" d="M570.7,209l0.3,1.8c-0.6,0.1-1.2,0.2-1.6,0.2c-0.8,0-1.4-0.1-1.8-0.4c-0.4-0.2-0.7-0.5-0.9-0.9
				c-0.2-0.4-0.3-1.2-0.3-2.4v-6.9h-1.6v-1.6h1.6v-3l2.2-1.2v4.2h2.2v1.6h-2.2v7c0,0.6,0,1,0.1,1.1c0.1,0.2,0.2,0.3,0.4,0.4
				c0.2,0.1,0.4,0.1,0.7,0.1C570,209.1,570.3,209.1,570.7,209z"/>
			<path class="st3" d="M581.1,209.3c-0.8,0.6-1.6,1.1-2.3,1.4c-0.7,0.3-1.5,0.4-2.4,0.4c-1.4,0-2.5-0.3-3.2-1
				c-0.8-0.6-1.1-1.5-1.1-2.5c0-0.6,0.1-1.1,0.4-1.6c0.3-0.5,0.7-0.9,1.1-1.2s1-0.5,1.6-0.7c0.4-0.1,1.1-0.2,1.9-0.3
				c1.8-0.2,3-0.4,3.9-0.7c0-0.3,0-0.5,0-0.5c0-0.8-0.2-1.4-0.6-1.8c-0.6-0.5-1.4-0.7-2.5-0.7c-1,0-1.8,0.2-2.3,0.5
				c-0.5,0.3-0.8,0.9-1.1,1.8l-2.1-0.3c0.2-0.9,0.5-1.5,1-2.1c0.4-0.5,1.1-0.9,1.9-1.2c0.8-0.3,1.8-0.4,2.9-0.4c1.1,0,2,0.1,2.7,0.4
				c0.7,0.2,1.2,0.5,1.5,0.9c0.3,0.4,0.5,0.8,0.7,1.4c0.1,0.3,0.1,1,0.1,1.9v2.7c0,1.9,0,3.1,0.1,3.6c0.1,0.5,0.3,1,0.5,1.4h-2.3
				C581.4,210.4,581.2,209.9,581.1,209.3z M581,204.8c-0.8,0.3-2,0.6-3.5,0.8c-0.9,0.1-1.5,0.3-1.9,0.4c-0.4,0.2-0.7,0.4-0.9,0.7
				c-0.2,0.3-0.3,0.6-0.3,1c0,0.5,0.2,1,0.7,1.4c0.4,0.4,1.1,0.5,1.9,0.5c0.8,0,1.6-0.2,2.2-0.5c0.7-0.3,1.1-0.8,1.4-1.4
				c0.2-0.5,0.4-1.1,0.4-2V204.8z"/>
			<path class="st3" d="M586.5,210.8v-16.6h2.2v16.6H586.5z"/>
			<path class="st3" d="M607.2,210.8v-1.5c-0.8,1.2-2,1.8-3.6,1.8c-1,0-2-0.3-2.8-0.8c-0.9-0.5-1.5-1.3-2-2.2
				c-0.5-0.9-0.7-2-0.7-3.3c0-1.2,0.2-2.3,0.6-3.3c0.4-1,1.1-1.7,1.9-2.2c0.9-0.5,1.8-0.8,2.9-0.8c0.8,0,1.5,0.2,2.1,0.5
				c0.6,0.3,1.1,0.7,1.5,1.2v-5.9h2.2v16.6H607.2z M600.3,204.8c0,1.5,0.3,2.7,1,3.4c0.7,0.8,1.5,1.1,2.4,1.1c0.9,0,1.8-0.4,2.4-1.1
				c0.7-0.7,1-1.8,1-3.3c0-1.6-0.3-2.8-1-3.6c-0.7-0.8-1.5-1.2-2.5-1.2c-1,0-1.8,0.4-2.4,1.1C600.6,202.1,600.3,203.2,600.3,204.8z"
				/>
			<path class="st3" d="M621.3,207l2.2,0.3c-0.4,1.2-1,2.2-2,2.9c-1,0.7-2.2,1-3.7,1c-1.9,0-3.4-0.5-4.5-1.6
				c-1.1-1.1-1.6-2.6-1.6-4.5c0-2,0.6-3.6,1.7-4.7c1.1-1.1,2.5-1.7,4.3-1.7c1.7,0,3.1,0.5,4.2,1.6c1.1,1.1,1.6,2.6,1.6,4.6
				c0,0.1,0,0.3,0,0.5h-9.5c0.1,1.3,0.5,2.3,1.2,3c0.7,0.7,1.6,1.1,2.7,1.1c0.8,0,1.5-0.2,2-0.6C620.6,208.4,621,207.8,621.3,207z
				 M614.2,203.7h7.1c-0.1-1-0.4-1.8-0.8-2.3c-0.7-0.8-1.6-1.2-2.7-1.2c-1,0-1.8,0.3-2.5,0.9C614.7,201.8,614.3,202.6,614.2,203.7z"
				/>
			<path class="st3" d="M626.3,210.8v-16.6h2.2v16.6H626.3z"/>
			<path class="st3" d="M631.8,196.6v-2.3h2.2v2.3H631.8z M631.8,210.8v-12h2.2v12H631.8z"/>
			<path class="st3" d="M640.8,210.8l-4.9-12h2.3l2.7,7.2c0.3,0.8,0.6,1.6,0.8,2.4c0.2-0.6,0.5-1.4,0.8-2.3l2.8-7.3h2.2l-4.8,12
				H640.8z"/>
			<path class="st3" d="M658.4,207l2.2,0.3c-0.4,1.2-1,2.2-2,2.9c-1,0.7-2.2,1-3.7,1c-1.9,0-3.4-0.5-4.5-1.6
				c-1.1-1.1-1.6-2.6-1.6-4.5c0-2,0.6-3.6,1.7-4.7c1.1-1.1,2.5-1.7,4.3-1.7c1.7,0,3.1,0.5,4.2,1.6c1.1,1.1,1.6,2.6,1.6,4.6
				c0,0.1,0,0.3,0,0.5h-9.5c0.1,1.3,0.5,2.3,1.2,3c0.7,0.7,1.6,1.1,2.7,1.1c0.8,0,1.5-0.2,2-0.6C657.6,208.4,658.1,207.8,658.4,207z
				 M651.3,203.7h7.1c-0.1-1-0.4-1.8-0.8-2.3c-0.7-0.8-1.6-1.2-2.7-1.2c-1,0-1.8,0.3-2.5,0.9C651.7,201.8,651.3,202.6,651.3,203.7z"
				/>
			<path class="st3" d="M663.3,210.8v-12h2v1.8c0.5-0.9,1-1.4,1.4-1.7c0.4-0.3,0.9-0.4,1.4-0.4c0.7,0,1.5,0.2,2.2,0.7l-0.7,1.9
				c-0.5-0.3-1.1-0.4-1.6-0.4c-0.5,0-0.9,0.1-1.3,0.4c-0.4,0.3-0.6,0.6-0.8,1.1c-0.2,0.7-0.4,1.5-0.4,2.4v6.3H663.3z"/>
			<path class="st3" d="M671.6,196.6v-2.3h2.2v2.3H671.6z M671.6,210.8v-12h2.2v12H671.6z"/>
			<path class="st3" d="M685.8,207l2.2,0.3c-0.4,1.2-1,2.2-2,2.9c-1,0.7-2.2,1-3.7,1c-1.9,0-3.4-0.5-4.5-1.6
				c-1.1-1.1-1.6-2.6-1.6-4.5c0-2,0.6-3.6,1.7-4.7c1.1-1.1,2.5-1.7,4.3-1.7c1.7,0,3.1,0.5,4.2,1.6c1.1,1.1,1.6,2.6,1.6,4.6
				c0,0.1,0,0.3,0,0.5h-9.5c0.1,1.3,0.5,2.3,1.2,3c0.7,0.7,1.6,1.1,2.7,1.1c0.8,0,1.5-0.2,2-0.6C685,208.4,685.5,207.8,685.8,207z
				 M678.7,203.7h7.1c-0.1-1-0.4-1.8-0.8-2.3c-0.7-0.8-1.6-1.2-2.7-1.2c-1,0-1.8,0.3-2.5,0.9C679.1,201.8,678.8,202.6,678.7,203.7z"
				/>
			<path class="st3" d="M689.9,207.2l2.1-0.3c0.1,0.8,0.5,1.4,1,1.9c0.6,0.4,1.3,0.6,2.3,0.6c1,0,1.7-0.2,2.2-0.6
				c0.5-0.4,0.7-0.8,0.7-1.3c0-0.5-0.2-0.8-0.6-1.1c-0.3-0.2-1-0.4-2.2-0.7c-1.6-0.4-2.7-0.7-3.3-1c-0.6-0.3-1.1-0.7-1.4-1.1
				c-0.3-0.5-0.5-1-0.5-1.6c0-0.5,0.1-1,0.4-1.5c0.3-0.5,0.6-0.8,1.1-1.1c0.3-0.2,0.8-0.4,1.4-0.6c0.6-0.2,1.2-0.2,1.9-0.2
				c1,0,1.9,0.1,2.6,0.4c0.8,0.3,1.3,0.6,1.7,1.1c0.4,0.5,0.6,1.1,0.7,1.9l-2.1,0.3c-0.1-0.6-0.4-1.1-0.8-1.4
				c-0.5-0.3-1.1-0.5-2-0.5c-1,0-1.7,0.2-2.1,0.5c-0.4,0.3-0.6,0.7-0.6,1.1c0,0.3,0.1,0.5,0.3,0.7c0.2,0.2,0.5,0.4,0.8,0.5
				c0.2,0.1,0.9,0.2,1.9,0.5c1.5,0.4,2.6,0.7,3.2,0.9c0.6,0.2,1.1,0.6,1.4,1.1s0.5,1,0.5,1.7c0,0.7-0.2,1.3-0.6,1.9
				c-0.4,0.6-1,1.1-1.8,1.4c-0.8,0.3-1.7,0.5-2.7,0.5c-1.7,0-2.9-0.3-3.8-1C690.7,209.5,690.2,208.5,689.9,207.2z"/>
		</g>
		<polygon class="st2" points="608.5,225.9 592.4,244.3 578.1,225.9 		"/>
	</g>
	<g>
		<path class="st2" d="M83.9,886.4v-6.9l-6.3-9.4h2.6l3.2,4.9c0.6,0.9,1.1,1.8,1.7,2.8c0.5-0.9,1.1-1.8,1.8-2.9l3.2-4.8h2.5
			l-6.5,9.4v6.9H83.9z"/>
		<path class="st2" d="M100.2,882.6l2.1,0.3c-0.3,1.2-0.9,2.1-1.8,2.8c-0.9,0.7-2,1-3.4,1c-1.7,0-3.1-0.5-4.1-1.6s-1.5-2.5-1.5-4.5
			c0-2,0.5-3.5,1.5-4.6s2.3-1.6,4-1.6c1.6,0,2.9,0.5,3.9,1.6c1,1.1,1.5,2.6,1.5,4.5c0,0.1,0,0.3,0,0.5h-8.8c0.1,1.3,0.4,2.3,1.1,3
			c0.7,0.7,1.5,1,2.5,1c0.7,0,1.4-0.2,1.9-0.6C99.5,884.1,99.9,883.5,100.2,882.6z M93.6,879.4h6.6c-0.1-1-0.3-1.7-0.8-2.2
			c-0.6-0.8-1.5-1.2-2.5-1.2c-0.9,0-1.7,0.3-2.3,0.9C94,877.5,93.7,878.4,93.6,879.4z"/>
		<path class="st2" d="M112.4,885c-0.7,0.6-1.5,1.1-2.1,1.3c-0.7,0.3-1.4,0.4-2.2,0.4c-1.3,0-2.3-0.3-3-0.9c-0.7-0.6-1-1.4-1-2.4
			c0-0.6,0.1-1.1,0.4-1.6c0.3-0.5,0.6-0.9,1-1.1c0.4-0.3,0.9-0.5,1.4-0.7c0.4-0.1,1-0.2,1.8-0.3c1.6-0.2,2.8-0.4,3.6-0.7
			c0-0.3,0-0.4,0-0.5c0-0.8-0.2-1.4-0.6-1.7c-0.5-0.4-1.3-0.7-2.3-0.7c-0.9,0-1.6,0.2-2.1,0.5c-0.4,0.3-0.8,0.9-1,1.7l-2-0.3
			c0.2-0.8,0.5-1.5,0.9-2c0.4-0.5,1-0.9,1.8-1.2c0.8-0.3,1.7-0.4,2.7-0.4c1,0,1.8,0.1,2.5,0.4c0.6,0.2,1.1,0.5,1.4,0.9
			c0.3,0.4,0.5,0.8,0.6,1.4c0.1,0.3,0.1,1,0.1,1.8v2.7c0,1.9,0,3,0.1,3.5c0.1,0.5,0.3,1,0.5,1.4h-2.1
			C112.6,886,112.5,885.5,112.4,885z M112.3,880.5c-0.7,0.3-1.8,0.5-3.3,0.8c-0.8,0.1-1.4,0.3-1.7,0.4c-0.3,0.1-0.6,0.4-0.8,0.6
			c-0.2,0.3-0.3,0.6-0.3,0.9c0,0.5,0.2,1,0.6,1.3c0.4,0.4,1,0.5,1.8,0.5c0.8,0,1.5-0.2,2.1-0.5c0.6-0.3,1-0.8,1.3-1.4
			c0.2-0.5,0.3-1.1,0.3-2V880.5z"/>
		<path class="st2" d="M117.4,886.4v-11.8h1.8v1.8c0.5-0.8,0.9-1.4,1.3-1.7c0.4-0.3,0.8-0.4,1.3-0.4c0.7,0,1.4,0.2,2.1,0.6l-0.7,1.9
			c-0.5-0.3-1-0.4-1.5-0.4c-0.4,0-0.8,0.1-1.2,0.4s-0.6,0.6-0.7,1.1c-0.2,0.7-0.3,1.5-0.3,2.3v6.2H117.4z"/>
	</g>
	<g>
		<path class="st2" d="M120.9,448.2h16.3v2.2l-12.8,8.5h12.8v2.1h-16.3v-2.2l12.8-8.5h-12.8V448.2z"/>
		<path class="st2" d="M126.7,463.6c2.2,0,3.8,0.6,4.8,1.8c0.9,1,1.3,2.2,1.3,3.7c0,1.6-0.5,2.9-1.6,4c-1.1,1-2.5,1.5-4.4,1.5
			c-1.5,0-2.7-0.2-3.6-0.7c-0.9-0.5-1.5-1.1-2-2c-0.5-0.9-0.7-1.8-0.7-2.8c0-1.6,0.5-3,1.6-4C123.2,464.1,124.8,463.6,126.7,463.6z
			 M126.7,465.7c-1.5,0-2.6,0.3-3.4,1c-0.8,0.7-1.1,1.5-1.1,2.5c0,1,0.4,1.8,1.1,2.5c0.8,0.7,1.9,1,3.4,1c1.5,0,2.6-0.3,3.3-1
			c0.7-0.7,1.1-1.5,1.1-2.5c0-1-0.4-1.8-1.1-2.5C129.4,466,128.3,465.7,126.7,465.7z"/>
		<path class="st2" d="M120.9,477.6h2.3v2.3h-2.3V477.6z"/>
		<path class="st2" d="M126.7,488.9c2.2,0,3.8,0.6,4.8,1.8c0.9,1,1.3,2.2,1.3,3.7c0,1.6-0.5,2.9-1.6,4c-1.1,1-2.5,1.5-4.4,1.5
			c-1.5,0-2.7-0.2-3.6-0.7c-0.9-0.5-1.5-1.1-2-2c-0.5-0.9-0.7-1.8-0.7-2.8c0-1.6,0.5-3,1.6-4C123.2,489.4,124.8,488.9,126.7,488.9z
			 M126.7,490.9c-1.5,0-2.6,0.3-3.4,1c-0.8,0.7-1.1,1.5-1.1,2.5c0,1,0.4,1.8,1.1,2.5c0.8,0.7,1.9,1,3.4,1c1.5,0,2.6-0.3,3.3-1
			c0.7-0.7,1.1-1.5,1.1-2.5c0-1-0.4-1.8-1.1-2.5C129.4,491.3,128.3,490.9,126.7,490.9z"/>
		<path class="st2" d="M120.9,502.7h10.2V501h1.6v1.8h1.3c0.8,0,1.4,0.1,1.8,0.2c0.5,0.2,0.9,0.5,1.3,1c0.3,0.5,0.5,1.2,0.5,2
			c0,0.6-0.1,1.2-0.2,1.9l-1.7-0.3c0.1-0.4,0.1-0.8,0.1-1.2c0-0.6-0.1-1-0.4-1.3c-0.3-0.3-0.7-0.4-1.5-0.4h-1.1v2.3h-1.6v-2.3h-10.2
			V502.7z"/>
		<path class="st2" d="M120.9,515.1h16.3v6.1c0,1.2-0.2,2.2-0.5,3c-0.3,0.7-0.8,1.3-1.5,1.8c-0.7,0.4-1.4,0.6-2.1,0.6
			c-0.7,0-1.3-0.2-2-0.6c-0.6-0.4-1.1-0.9-1.5-1.7c-0.3,1-0.8,1.7-1.5,2.3c-0.7,0.5-1.5,0.8-2.5,0.8c-0.8,0-1.5-0.2-2.1-0.5
			c-0.7-0.3-1.2-0.7-1.5-1.2c-0.4-0.5-0.6-1.1-0.8-1.8c-0.2-0.7-0.3-1.6-0.3-2.6V515.1z M122.8,517.2v4c0,0.7,0,1.2,0.1,1.5
			c0.1,0.5,0.2,0.9,0.4,1.2c0.2,0.3,0.5,0.6,0.9,0.8c0.4,0.2,0.9,0.3,1.4,0.3c0.6,0,1.1-0.2,1.6-0.5s0.8-0.7,0.9-1.3
			c0.2-0.6,0.3-1.3,0.3-2.4v-3.8H122.8z M130.3,517.2v3.5c0,1,0.1,1.6,0.2,2.1c0.2,0.5,0.4,1,0.8,1.2c0.4,0.3,0.9,0.4,1.4,0.4
			c0.5,0,1-0.1,1.4-0.4c0.4-0.3,0.7-0.6,0.8-1.1c0.2-0.5,0.2-1.3,0.2-2.5v-3.2H130.3z"/>
		<path class="st2" d="M120.9,530.1h11.8v2h-11.8V530.1z M134.8,530.1h2.3v2h-2.3V530.1z"/>
		<path class="st2" d="M120.9,535.1h11.8v1.8h-1.8c0.8,0.5,1.4,0.9,1.7,1.3c0.3,0.4,0.4,0.8,0.4,1.3c0,0.7-0.2,1.4-0.6,2.1l-1.9-0.7
			c0.3-0.5,0.4-1,0.4-1.5c0-0.4-0.1-0.8-0.4-1.2c-0.3-0.3-0.6-0.6-1.1-0.7c-0.7-0.2-1.5-0.3-2.3-0.3h-6.2V535.1z"/>
		<path class="st2" d="M122.6,547l-1.8,0.3c-0.1-0.6-0.2-1.1-0.2-1.5c0-0.7,0.1-1.3,0.3-1.7s0.5-0.7,0.9-0.8
			c0.4-0.2,1.2-0.2,2.4-0.2h6.8v-1.5h1.6v1.5h2.9l1.2,2h-4.1v2h-1.6v-2h-6.9c-0.6,0-0.9,0-1.1,0.1c-0.2,0.1-0.3,0.2-0.4,0.3
			c-0.1,0.2-0.1,0.4-0.1,0.7C122.6,546.4,122.6,546.7,122.6,547z"/>
		<path class="st2" d="M120.9,549h16.3v2h-5.8c1.1,0.9,1.6,2.1,1.6,3.5c0,0.9-0.2,1.6-0.5,2.3c-0.3,0.6-0.8,1.1-1.4,1.4
			c-0.6,0.3-1.5,0.4-2.6,0.4h-7.5v-2h7.5c1,0,1.7-0.2,2.2-0.6c0.5-0.4,0.7-1,0.7-1.8c0-0.6-0.2-1.1-0.5-1.7
			c-0.3-0.5-0.7-0.9-1.2-1.1c-0.5-0.2-1.2-0.3-2.2-0.3h-6.4V549z"/>
		<path class="st2" d="M124.4,560.8l0.3,2c-0.8,0.1-1.4,0.4-1.8,0.9c-0.4,0.5-0.6,1.2-0.6,2.1c0,0.9,0.2,1.6,0.6,2
			c0.4,0.4,0.8,0.7,1.3,0.7c0.4,0,0.8-0.2,1.1-0.6c0.2-0.3,0.4-1,0.7-2c0.4-1.5,0.7-2.5,1-3c0.3-0.6,0.6-1,1.1-1.3
			c0.5-0.3,1-0.4,1.6-0.4c0.5,0,1,0.1,1.5,0.4c0.4,0.2,0.8,0.6,1.1,1c0.2,0.3,0.4,0.7,0.6,1.3c0.2,0.5,0.2,1.1,0.2,1.7
			c0,0.9-0.1,1.7-0.4,2.4c-0.3,0.7-0.6,1.2-1.1,1.5c-0.5,0.3-1.1,0.6-1.8,0.7l-0.3-2c0.6-0.1,1.1-0.3,1.4-0.8c0.3-0.4,0.5-1,0.5-1.8
			c0-0.9-0.2-1.6-0.5-2c-0.3-0.4-0.7-0.6-1.1-0.6c-0.3,0-0.5,0.1-0.7,0.2c-0.2,0.2-0.4,0.4-0.5,0.8c-0.1,0.2-0.2,0.8-0.5,1.8
			c-0.4,1.4-0.7,2.4-0.9,3s-0.6,1-1,1.3c-0.5,0.3-1,0.5-1.7,0.5c-0.7,0-1.3-0.2-1.9-0.6c-0.6-0.4-1-0.9-1.4-1.7
			c-0.3-0.7-0.5-1.6-0.5-2.5c0-1.5,0.3-2.7,1-3.5C122.2,561.5,123.1,561,124.4,560.8z"/>
	</g>
	<circle class="st2" cx="195.8" cy="740.1" r="9.8"/>
	<circle class="st2" cx="322.5" cy="666.4" r="9.8"/>
	<circle class="st2" cx="458.5" cy="492.4" r="9.8"/>
	<circle class="st2" cx="593" cy="263.9" r="9.8"/>
	<line class="st4" x1="458.5" y1="492.4" x2="593" y2="263.4"/>
	<line class="st4" x1="322.5" y1="666.4" x2="458.5" y2="492.4"/>
	<path class="st5" d="M593,263.4"/>
	<path class="st5" d="M458.5,492.4"/>
	<line class="st4" x1="194.5" y1="740.4" x2="322.5" y2="666.4"/>
	<path class="st5" d="M322.5,666.4"/>
	<path class="st5" d="M194.5,740.4"/>
	<rect x="49" y="62.7" class="st6" width="673.9" height="105.1"/>
	<text transform="matrix(1 0 0 1 48.9745 93.442)"><tspan x="0" y="0" class="st7 st8 st9">Number of births by skilled delivery </tspan><tspan x="0" y="40" class="st7 st8 st9">in Nkwanta South</tspan></text>
</g>
</svg>
