<?xml version="1.0" encoding="utf-8"?>
<!-- Generator: Adobe Illustrator 19.2.1, SVG Export Plug-In . SVG Version: 6.00 Build 0)  -->
<svg version="1.1" xmlns="http://www.w3.org/2000/svg" xmlns:xlink="http://www.w3.org/1999/xlink" x="0px" y="0px"
	 viewBox="0 0 794 870.1" style="enable-background:new 0 0 794 870.1;" xml:space="preserve">
<style type="text/css">
	.st0{fill:none;stroke:#3A3A3A;stroke-miterlimit:10;}
	.st1{fill:#2D2D2D;}
	.st2{fill:#F9A42B;}
	.st3{fill:#FFFFFF;}
	.st4{fill:none;stroke:#F9A42B;stroke-width:3;stroke-miterlimit:10;}
</style>
<g id="Layer_1">
</g>
<g id="Layer_2">
	<rect x="565" y="145.2" class="st2" width="132" height="28"/>
	<g>
		<path class="st3" d="M577.9,164.5v-2.1h-4v-1l4.2-5.7h0.9v5.7h1.3v1h-1.3v2.1H577.9z M577.9,161.4v-3.9l-2.9,3.9H577.9z"/>
		<path class="st3" d="M585.8,164.5h-1.1v-6.8c-0.3,0.2-0.6,0.5-1.1,0.7c-0.4,0.2-0.8,0.4-1.2,0.6v-1c0.6-0.3,1.2-0.6,1.7-1
			c0.5-0.4,0.8-0.8,1-1.2h0.7V164.5z"/>
		<path class="st3" d="M588.8,156.9v-1h6v0.8c-0.6,0.6-1.2,1.4-1.8,2.4s-1,2-1.3,3c-0.2,0.7-0.4,1.5-0.4,2.4h-1.2
			c0-0.7,0.2-1.5,0.4-2.5c0.3-1,0.7-1.9,1.2-2.8c0.5-0.9,1.1-1.7,1.6-2.3H588.8z"/>
		<path class="st3" d="M602.2,164.5v-7.7h-3.1v-1h7.4v1h-3.1v7.7H602.2z"/>
		<path class="st3" d="M605.7,161.4c0-1.2,0.3-2,1-2.6c0.6-0.5,1.3-0.7,2.1-0.7c0.9,0,1.7,0.3,2.3,0.9s0.9,1.4,0.9,2.4
			c0,0.8-0.1,1.5-0.4,1.9c-0.3,0.5-0.6,0.8-1.1,1.1s-1,0.4-1.6,0.4c-0.9,0-1.7-0.3-2.3-0.9S605.7,162.4,605.7,161.4z M606.9,161.4
			c0,0.8,0.2,1.4,0.6,1.8c0.4,0.4,0.9,0.6,1.4,0.6c0.6,0,1-0.2,1.4-0.6c0.4-0.4,0.6-1,0.6-1.9c0-0.8-0.2-1.4-0.6-1.8
			c-0.4-0.4-0.8-0.6-1.4-0.6c-0.6,0-1,0.2-1.4,0.6C607.1,159.9,606.9,160.5,606.9,161.4z"/>
		<path class="st3" d="M615.9,163.6l0.2,0.9c-0.3,0.1-0.6,0.1-0.9,0.1c-0.4,0-0.7-0.1-1-0.2s-0.4-0.3-0.5-0.5
			c-0.1-0.2-0.1-0.6-0.1-1.3V159h-0.8v-0.8h0.8v-1.6l1.1-0.6v2.2h1.1v0.8h-1.1v3.7c0,0.3,0,0.5,0.1,0.6c0,0.1,0.1,0.2,0.2,0.2
			c0.1,0.1,0.2,0.1,0.4,0.1C615.5,163.6,615.7,163.6,615.9,163.6z"/>
		<path class="st3" d="M621.4,163.7c-0.4,0.3-0.8,0.6-1.2,0.7s-0.8,0.2-1.3,0.2c-0.7,0-1.3-0.2-1.7-0.5c-0.4-0.3-0.6-0.8-0.6-1.3
			c0-0.3,0.1-0.6,0.2-0.8s0.3-0.5,0.6-0.6s0.5-0.3,0.8-0.4c0.2-0.1,0.6-0.1,1-0.2c0.9-0.1,1.6-0.2,2-0.4c0-0.1,0-0.2,0-0.3
			c0-0.4-0.1-0.7-0.3-0.9c-0.3-0.2-0.7-0.4-1.3-0.4c-0.5,0-0.9,0.1-1.2,0.3c-0.3,0.2-0.4,0.5-0.6,0.9l-1.1-0.1
			c0.1-0.4,0.3-0.8,0.5-1.1c0.2-0.3,0.6-0.5,1-0.6c0.4-0.1,0.9-0.2,1.5-0.2c0.6,0,1,0.1,1.4,0.2c0.4,0.1,0.6,0.3,0.8,0.5
			c0.2,0.2,0.3,0.4,0.4,0.7c0,0.2,0.1,0.5,0.1,1v1.4c0,1,0,1.6,0.1,1.9c0,0.3,0.1,0.5,0.3,0.8h-1.2
			C621.5,164.3,621.4,164,621.4,163.7z M621.3,161.3c-0.4,0.2-1,0.3-1.9,0.4c-0.5,0.1-0.8,0.1-1,0.2c-0.2,0.1-0.3,0.2-0.5,0.3
			c-0.1,0.2-0.2,0.3-0.2,0.5c0,0.3,0.1,0.5,0.3,0.7s0.6,0.3,1,0.3c0.4,0,0.8-0.1,1.2-0.3c0.3-0.2,0.6-0.4,0.8-0.7
			c0.1-0.2,0.2-0.6,0.2-1.1V161.3z"/>
		<path class="st3" d="M624.2,164.5v-8.7h1.1v8.7H624.2z"/>
		<path class="st3" d="M635.1,164.5v-0.8c-0.4,0.6-1.1,0.9-1.9,0.9c-0.5,0-1-0.1-1.5-0.4c-0.5-0.3-0.8-0.7-1-1.2
			c-0.2-0.5-0.4-1.1-0.4-1.7c0-0.6,0.1-1.2,0.3-1.7c0.2-0.5,0.6-0.9,1-1.2c0.4-0.3,1-0.4,1.5-0.4c0.4,0,0.8,0.1,1.1,0.2
			s0.6,0.4,0.8,0.6v-3.1h1.1v8.7H635.1z M631.5,161.4c0,0.8,0.2,1.4,0.5,1.8c0.4,0.4,0.8,0.6,1.3,0.6c0.5,0,0.9-0.2,1.3-0.6
			c0.3-0.4,0.5-1,0.5-1.8c0-0.9-0.2-1.5-0.5-1.9c-0.4-0.4-0.8-0.6-1.3-0.6c-0.5,0-0.9,0.2-1.3,0.6S631.5,160.5,631.5,161.4z"/>
		<path class="st3" d="M642.6,162.5l1.2,0.1c-0.2,0.6-0.5,1.1-1,1.5c-0.5,0.4-1.1,0.5-1.9,0.5c-1,0-1.8-0.3-2.3-0.9
			c-0.6-0.6-0.9-1.4-0.9-2.4c0-1.1,0.3-1.9,0.9-2.5c0.6-0.6,1.3-0.9,2.3-0.9c0.9,0,1.6,0.3,2.2,0.9s0.9,1.4,0.9,2.4
			c0,0.1,0,0.2,0,0.3h-5c0,0.7,0.3,1.2,0.6,1.6c0.4,0.4,0.8,0.6,1.4,0.6c0.4,0,0.8-0.1,1.1-0.3C642.1,163.3,642.4,162.9,642.6,162.5
			z M638.8,160.7h3.8c-0.1-0.5-0.2-0.9-0.4-1.2c-0.4-0.4-0.8-0.6-1.4-0.6c-0.5,0-1,0.2-1.3,0.5C639,159.8,638.8,160.2,638.8,160.7z"
			/>
		<path class="st3" d="M645.1,164.5v-8.7h1.1v8.7H645.1z"/>
		<path class="st3" d="M648.1,157v-1.2h1.1v1.2H648.1z M648.1,164.5v-6.3h1.1v6.3H648.1z"/>
		<path class="st3" d="M652.8,164.5l-2.6-6.3h1.2l1.4,3.8c0.2,0.4,0.3,0.8,0.4,1.3c0.1-0.3,0.2-0.7,0.4-1.2l1.5-3.9h1.2l-2.6,6.3
			H652.8z"/>
		<path class="st3" d="M662.1,162.5l1.2,0.1c-0.2,0.6-0.5,1.1-1,1.5c-0.5,0.4-1.1,0.5-1.9,0.5c-1,0-1.8-0.3-2.3-0.9
			c-0.6-0.6-0.9-1.4-0.9-2.4c0-1.1,0.3-1.9,0.9-2.5c0.6-0.6,1.3-0.9,2.3-0.9c0.9,0,1.6,0.3,2.2,0.9s0.9,1.4,0.9,2.4
			c0,0.1,0,0.2,0,0.3h-5c0,0.7,0.3,1.2,0.6,1.6c0.4,0.4,0.8,0.6,1.4,0.6c0.4,0,0.8-0.1,1.1-0.3C661.7,163.3,661.9,162.9,662.1,162.5
			z M658.3,160.7h3.8c-0.1-0.5-0.2-0.9-0.4-1.2c-0.4-0.4-0.8-0.6-1.4-0.6c-0.5,0-1,0.2-1.3,0.5C658.5,159.8,658.4,160.2,658.3,160.7
			z"/>
		<path class="st3" d="M664.7,164.5v-6.3h1v1c0.3-0.4,0.5-0.7,0.7-0.9c0.2-0.1,0.5-0.2,0.7-0.2c0.4,0,0.8,0.1,1.2,0.3l-0.4,1
			c-0.3-0.2-0.6-0.2-0.8-0.2c-0.2,0-0.5,0.1-0.7,0.2s-0.3,0.3-0.4,0.6c-0.1,0.4-0.2,0.8-0.2,1.2v3.3H664.7z"/>
		<path class="st3" d="M669,157v-1.2h1.1v1.2H669z M669,164.5v-6.3h1.1v6.3H669z"/>
		<path class="st3" d="M676.5,162.5l1.2,0.1c-0.2,0.6-0.5,1.1-1,1.5c-0.5,0.4-1.1,0.5-1.9,0.5c-1,0-1.8-0.3-2.3-0.9
			c-0.6-0.6-0.9-1.4-0.9-2.4c0-1.1,0.3-1.9,0.9-2.5c0.6-0.6,1.3-0.9,2.3-0.9c0.9,0,1.6,0.3,2.2,0.9s0.9,1.4,0.9,2.4
			c0,0.1,0,0.2,0,0.3h-5c0,0.7,0.3,1.2,0.6,1.6c0.4,0.4,0.8,0.6,1.4,0.6c0.4,0,0.8-0.1,1.1-0.3C676.1,163.3,676.3,162.9,676.5,162.5
			z M672.8,160.7h3.8c-0.1-0.5-0.2-0.9-0.4-1.2c-0.4-0.4-0.8-0.6-1.4-0.6c-0.5,0-1,0.2-1.3,0.5C673,159.8,672.8,160.2,672.8,160.7z"
			/>
		<path class="st3" d="M678.7,162.6l1.1-0.2c0.1,0.4,0.2,0.8,0.5,1s0.7,0.3,1.2,0.3c0.5,0,0.9-0.1,1.2-0.3c0.3-0.2,0.4-0.4,0.4-0.7
			c0-0.2-0.1-0.4-0.3-0.6c-0.2-0.1-0.5-0.2-1.2-0.4c-0.8-0.2-1.4-0.4-1.7-0.5c-0.3-0.1-0.6-0.3-0.7-0.6c-0.2-0.3-0.2-0.5-0.2-0.8
			c0-0.3,0.1-0.5,0.2-0.8c0.1-0.2,0.3-0.4,0.6-0.6c0.2-0.1,0.4-0.2,0.7-0.3c0.3-0.1,0.6-0.1,1-0.1c0.5,0,1,0.1,1.4,0.2
			c0.4,0.1,0.7,0.3,0.9,0.6c0.2,0.2,0.3,0.6,0.4,1l-1.1,0.1c-0.1-0.3-0.2-0.6-0.4-0.8s-0.6-0.3-1-0.3c-0.5,0-0.9,0.1-1.1,0.2
			s-0.3,0.4-0.3,0.6c0,0.1,0,0.3,0.1,0.4c0.1,0.1,0.2,0.2,0.4,0.3c0.1,0,0.5,0.1,1,0.3c0.8,0.2,1.4,0.4,1.7,0.5s0.6,0.3,0.8,0.6
			s0.3,0.6,0.3,0.9c0,0.4-0.1,0.7-0.3,1c-0.2,0.3-0.5,0.6-1,0.7c-0.4,0.2-0.9,0.3-1.4,0.3c-0.9,0-1.5-0.2-2-0.5
			C679.1,163.8,678.8,163.3,678.7,162.6z"/>
	</g>
	<polygon class="st2" points="601,172.2 592,181.9 585,172.2 	"/>
	<circle class="st2" cx="593" cy="201.2" r="7.5"/>
</g>
</svg>
