<?xml version="1.0" encoding="utf-8"?>
<!-- Generator: Adobe Illustrator 19.2.1, SVG Export Plug-In . SVG Version: 6.00 Build 0)  -->
<svg version="1.1" xmlns="http://www.w3.org/2000/svg" xmlns:xlink="http://www.w3.org/1999/xlink" x="0px" y="0px"
	 viewBox="0 0 794 870.1" style="enable-background:new 0 0 794 870.1;" xml:space="preserve">
<style type="text/css">
	.st0{fill:none;stroke:#3A3A3A;stroke-miterlimit:10;}
	.st1{fill:#2D2D2D;}
	.st2{fill:#F9A42B;}
	.st3{fill:#FFFFFF;}
	.st4{fill:none;stroke:#F9A42B;stroke-width:3;stroke-miterlimit:10;}
</style>
<g id="Layer_1">
</g>
<g id="Layer_2">
	<polyline class="st0" points="676,792.7 95.5,792.7 95.5,126.2 	"/>
	<g>
		<path class="st1" d="M186.5,822v1.3H179c0-0.3,0-0.7,0.2-1c0.2-0.5,0.5-1,0.9-1.5c0.4-0.5,1-1.1,1.8-1.7c1.2-1,2.1-1.8,2.5-2.4
			s0.7-1.2,0.7-1.7c0-0.6-0.2-1-0.6-1.4s-0.9-0.6-1.5-0.6c-0.7,0-1.2,0.2-1.6,0.6s-0.6,1-0.6,1.7l-1.4-0.1c0.1-1.1,0.5-1.9,1.1-2.4
			c0.6-0.6,1.5-0.8,2.6-0.8c1.1,0,2,0.3,2.6,0.9c0.6,0.6,1,1.4,1,2.2c0,0.5-0.1,0.9-0.3,1.3c-0.2,0.4-0.5,0.9-0.9,1.4
			s-1.1,1.2-2.2,2c-0.8,0.7-1.4,1.2-1.6,1.4c-0.2,0.3-0.4,0.5-0.6,0.8H186.5z"/>
		<path class="st1" d="M188,817.7c0-1.3,0.1-2.4,0.4-3.2c0.3-0.8,0.7-1.5,1.2-1.9c0.5-0.4,1.2-0.7,2.1-0.7c0.6,0,1.1,0.1,1.6,0.4
			c0.5,0.2,0.8,0.6,1.1,1.1c0.3,0.5,0.5,1,0.7,1.7c0.2,0.7,0.3,1.6,0.3,2.7c0,1.3-0.1,2.4-0.4,3.2c-0.3,0.8-0.7,1.5-1.2,1.9
			c-0.5,0.4-1.2,0.7-2.1,0.7c-1.1,0-2-0.4-2.6-1.2C188.4,821.4,188,819.9,188,817.7z M189.4,817.7c0,1.9,0.2,3.1,0.7,3.7
			s1,0.9,1.6,0.9c0.6,0,1.2-0.3,1.6-0.9c0.4-0.6,0.7-1.9,0.7-3.7c0-1.9-0.2-3.1-0.7-3.7c-0.4-0.6-1-0.9-1.6-0.9
			c-0.6,0-1.2,0.3-1.5,0.8C189.7,814.6,189.4,815.9,189.4,817.7z"/>
		<path class="st1" d="M202.1,823.4h-1.4v-8.9c-0.3,0.3-0.8,0.6-1.3,1c-0.5,0.3-1,0.6-1.5,0.7v-1.3c0.8-0.4,1.5-0.8,2-1.3
			c0.6-0.5,1-1,1.2-1.5h0.9V823.4z"/>
		<path class="st1" d="M210.1,823.4v-2.7h-4.9v-1.3l5.2-7.4h1.1v7.4h1.5v1.3h-1.5v2.7H210.1z M210.1,819.4v-5.1l-3.6,5.1H210.1z"/>
	</g>
	<g>
		<path class="st1" d="M64,694.4l1.5-0.1c0.1,0.7,0.4,1.3,0.8,1.6s0.9,0.5,1.4,0.5c0.7,0,1.2-0.3,1.7-0.8c0.5-0.5,0.7-1.2,0.7-2
			c0-0.8-0.2-1.4-0.7-1.9c-0.4-0.5-1-0.7-1.8-0.7c-0.5,0-0.9,0.1-1.2,0.3c-0.4,0.2-0.6,0.5-0.9,0.8l-1.3-0.2l1.1-5.8H71v1.3h-4.5
			l-0.6,3.1c0.7-0.5,1.4-0.7,2.1-0.7c1,0,1.8,0.3,2.5,1c0.7,0.7,1,1.6,1,2.7c0,1-0.3,1.9-0.9,2.7c-0.7,0.9-1.7,1.4-3,1.4
			c-1,0-1.9-0.3-2.5-0.9S64.1,695.3,64,694.4z"/>
		<path class="st1" d="M72.8,691.7c0-1.3,0.1-2.4,0.4-3.2c0.3-0.8,0.7-1.5,1.2-1.9c0.5-0.4,1.2-0.7,2.1-0.7c0.6,0,1.1,0.1,1.6,0.4
			c0.5,0.2,0.8,0.6,1.1,1.1c0.3,0.5,0.5,1,0.7,1.7c0.2,0.7,0.3,1.6,0.3,2.7c0,1.3-0.1,2.4-0.4,3.2c-0.3,0.8-0.7,1.5-1.2,1.9
			c-0.5,0.4-1.2,0.7-2.1,0.7c-1.1,0-2-0.4-2.6-1.2C73.2,695.4,72.8,693.9,72.8,691.7z M74.3,691.7c0,1.9,0.2,3.1,0.7,3.7
			s1,0.9,1.6,0.9c0.6,0,1.2-0.3,1.6-0.9c0.4-0.6,0.7-1.9,0.7-3.7c0-1.9-0.2-3.1-0.7-3.7c-0.4-0.6-1-0.9-1.6-0.9
			c-0.6,0-1.2,0.3-1.5,0.8C74.5,688.6,74.3,689.9,74.3,691.7z"/>
	</g>
	<g>
		<path class="st1" d="M71.2,779.6c0-1.3,0.1-2.4,0.4-3.2c0.3-0.8,0.7-1.5,1.2-1.9c0.5-0.4,1.2-0.7,2.1-0.7c0.6,0,1.1,0.1,1.6,0.4
			c0.5,0.2,0.8,0.6,1.1,1.1c0.3,0.5,0.5,1,0.7,1.7c0.2,0.7,0.3,1.6,0.3,2.7c0,1.3-0.1,2.4-0.4,3.2c-0.3,0.8-0.7,1.5-1.2,1.9
			c-0.5,0.4-1.2,0.7-2.1,0.7c-1.1,0-2-0.4-2.6-1.2C71.5,783.3,71.2,781.8,71.2,779.6z M72.6,779.6c0,1.9,0.2,3.1,0.7,3.7
			s1,0.9,1.6,0.9c0.6,0,1.2-0.3,1.6-0.9c0.4-0.6,0.7-1.9,0.7-3.7c0-1.9-0.2-3.1-0.7-3.7c-0.4-0.6-1-0.9-1.6-0.9
			c-0.6,0-1.2,0.3-1.5,0.8C72.8,776.5,72.6,777.8,72.6,779.6z"/>
	</g>
	<g>
		<path class="st1" d="M60.4,628.3H59v-8.9c-0.3,0.3-0.8,0.6-1.3,1c-0.5,0.3-1,0.6-1.5,0.7v-1.3c0.8-0.4,1.5-0.8,2-1.3
			c0.6-0.5,1-1,1.2-1.5h0.9V628.3z"/>
		<path class="st1" d="M64,622.7c0-1.3,0.1-2.4,0.4-3.2c0.3-0.8,0.7-1.5,1.2-1.9c0.5-0.4,1.2-0.7,2.1-0.7c0.6,0,1.1,0.1,1.6,0.4
			c0.5,0.2,0.8,0.6,1.1,1.1c0.3,0.5,0.5,1,0.7,1.7c0.2,0.7,0.3,1.6,0.3,2.7c0,1.3-0.1,2.4-0.4,3.2c-0.3,0.8-0.7,1.5-1.2,1.9
			c-0.5,0.4-1.2,0.7-2.1,0.7c-1.1,0-2-0.4-2.6-1.2C64.4,626.4,64,624.8,64,622.7z M65.4,622.7c0,1.9,0.2,3.1,0.7,3.7s1,0.9,1.6,0.9
			c0.6,0,1.2-0.3,1.6-0.9c0.4-0.6,0.7-1.9,0.7-3.7c0-1.9-0.2-3.1-0.7-3.7c-0.4-0.6-1-0.9-1.6-0.9c-0.6,0-1.2,0.3-1.5,0.8
			C65.7,619.5,65.4,620.8,65.4,622.7z"/>
		<path class="st1" d="M72.8,622.7c0-1.3,0.1-2.4,0.4-3.2c0.3-0.8,0.7-1.5,1.2-1.9c0.5-0.4,1.2-0.7,2.1-0.7c0.6,0,1.1,0.1,1.6,0.4
			c0.5,0.2,0.8,0.6,1.1,1.1c0.3,0.5,0.5,1,0.7,1.7c0.2,0.7,0.3,1.6,0.3,2.7c0,1.3-0.1,2.4-0.4,3.2c-0.3,0.8-0.7,1.5-1.2,1.9
			c-0.5,0.4-1.2,0.7-2.1,0.7c-1.1,0-2-0.4-2.6-1.2C73.2,626.4,72.8,624.8,72.8,622.7z M74.3,622.7c0,1.9,0.2,3.1,0.7,3.7
			s1,0.9,1.6,0.9c0.6,0,1.2-0.3,1.6-0.9c0.4-0.6,0.7-1.9,0.7-3.7c0-1.9-0.2-3.1-0.7-3.7c-0.4-0.6-1-0.9-1.6-0.9
			c-0.6,0-1.2,0.3-1.5,0.8C74.5,619.5,74.3,620.8,74.3,622.7z"/>
	</g>
	<g>
		<path class="st1" d="M60.4,559.2H59v-8.9c-0.3,0.3-0.8,0.6-1.3,1c-0.5,0.3-1,0.6-1.5,0.7v-1.3c0.8-0.4,1.5-0.8,2-1.3
			c0.6-0.5,1-1,1.2-1.5h0.9V559.2z"/>
		<path class="st1" d="M64,556.2l1.5-0.1c0.1,0.7,0.4,1.3,0.8,1.6s0.9,0.5,1.4,0.5c0.7,0,1.2-0.3,1.7-0.8c0.5-0.5,0.7-1.2,0.7-2
			c0-0.8-0.2-1.4-0.7-1.9c-0.4-0.5-1-0.7-1.8-0.7c-0.5,0-0.9,0.1-1.2,0.3c-0.4,0.2-0.6,0.5-0.9,0.8l-1.3-0.2l1.1-5.8H71v1.3h-4.5
			l-0.6,3.1c0.7-0.5,1.4-0.7,2.1-0.7c1,0,1.8,0.3,2.5,1c0.7,0.7,1,1.6,1,2.7c0,1-0.3,1.9-0.9,2.7c-0.7,0.9-1.7,1.4-3,1.4
			c-1,0-1.9-0.3-2.5-0.9S64.1,557.2,64,556.2z"/>
		<path class="st1" d="M72.8,553.6c0-1.3,0.1-2.4,0.4-3.2c0.3-0.8,0.7-1.5,1.2-1.9c0.5-0.4,1.2-0.7,2.1-0.7c0.6,0,1.1,0.1,1.6,0.4
			c0.5,0.2,0.8,0.6,1.1,1.1c0.3,0.5,0.5,1,0.7,1.7c0.2,0.7,0.3,1.6,0.3,2.7c0,1.3-0.1,2.4-0.4,3.2c-0.3,0.8-0.7,1.5-1.2,1.9
			c-0.5,0.4-1.2,0.7-2.1,0.7c-1.1,0-2-0.4-2.6-1.2C73.2,557.3,72.8,555.7,72.8,553.6z M74.3,553.6c0,1.9,0.2,3.1,0.7,3.7
			s1,0.9,1.6,0.9c0.6,0,1.2-0.3,1.6-0.9c0.4-0.6,0.7-1.9,0.7-3.7c0-1.9-0.2-3.1-0.7-3.7c-0.4-0.6-1-0.9-1.6-0.9
			c-0.6,0-1.2,0.3-1.5,0.8C74.5,550.5,74.3,551.7,74.3,553.6z"/>
	</g>
	<g>
		<path class="st1" d="M62.5,488.8v1.3H55c0-0.3,0-0.7,0.2-1c0.2-0.5,0.5-1,0.9-1.5c0.4-0.5,1-1.1,1.8-1.7c1.2-1,2.1-1.8,2.5-2.4
			s0.7-1.2,0.7-1.7c0-0.6-0.2-1-0.6-1.4s-0.9-0.6-1.5-0.6c-0.7,0-1.2,0.2-1.6,0.6s-0.6,1-0.6,1.7l-1.4-0.1c0.1-1.1,0.5-1.9,1.1-2.4
			c0.6-0.6,1.5-0.8,2.6-0.8c1.1,0,2,0.3,2.6,0.9c0.6,0.6,1,1.4,1,2.2c0,0.5-0.1,0.9-0.3,1.3c-0.2,0.4-0.5,0.9-0.9,1.4
			s-1.1,1.2-2.2,2c-0.8,0.7-1.4,1.2-1.6,1.4c-0.2,0.3-0.4,0.5-0.6,0.8H62.5z"/>
		<path class="st1" d="M64,484.5c0-1.3,0.1-2.4,0.4-3.2c0.3-0.8,0.7-1.5,1.2-1.9c0.5-0.4,1.2-0.7,2.1-0.7c0.6,0,1.1,0.1,1.6,0.4
			c0.5,0.2,0.8,0.6,1.1,1.1c0.3,0.5,0.5,1,0.7,1.7c0.2,0.7,0.3,1.6,0.3,2.7c0,1.3-0.1,2.4-0.4,3.2c-0.3,0.8-0.7,1.5-1.2,1.9
			c-0.5,0.4-1.2,0.7-2.1,0.7c-1.1,0-2-0.4-2.6-1.2C64.4,488.2,64,486.7,64,484.5z M65.4,484.5c0,1.9,0.2,3.1,0.7,3.7s1,0.9,1.6,0.9
			c0.6,0,1.2-0.3,1.6-0.9c0.4-0.6,0.7-1.9,0.7-3.7c0-1.9-0.2-3.1-0.7-3.7c-0.4-0.6-1-0.9-1.6-0.9c-0.6,0-1.2,0.3-1.5,0.8
			C65.7,481.4,65.4,482.7,65.4,484.5z"/>
		<path class="st1" d="M72.8,484.5c0-1.3,0.1-2.4,0.4-3.2c0.3-0.8,0.7-1.5,1.2-1.9c0.5-0.4,1.2-0.7,2.1-0.7c0.6,0,1.1,0.1,1.6,0.4
			c0.5,0.2,0.8,0.6,1.1,1.1c0.3,0.5,0.5,1,0.7,1.7c0.2,0.7,0.3,1.6,0.3,2.7c0,1.3-0.1,2.4-0.4,3.2c-0.3,0.8-0.7,1.5-1.2,1.9
			c-0.5,0.4-1.2,0.7-2.1,0.7c-1.1,0-2-0.4-2.6-1.2C73.2,488.2,72.8,486.7,72.8,484.5z M74.3,484.5c0,1.9,0.2,3.1,0.7,3.7
			s1,0.9,1.6,0.9c0.6,0,1.2-0.3,1.6-0.9c0.4-0.6,0.7-1.9,0.7-3.7c0-1.9-0.2-3.1-0.7-3.7c-0.4-0.6-1-0.9-1.6-0.9
			c-0.6,0-1.2,0.3-1.5,0.8C74.5,481.4,74.3,482.7,74.3,484.5z"/>
	</g>
	<g>
		<path class="st1" d="M62.5,419.7v1.3H55c0-0.3,0-0.7,0.2-1c0.2-0.5,0.5-1,0.9-1.5c0.4-0.5,1-1.1,1.8-1.7c1.2-1,2.1-1.8,2.5-2.4
			s0.7-1.2,0.7-1.7c0-0.6-0.2-1-0.6-1.4s-0.9-0.6-1.5-0.6c-0.7,0-1.2,0.2-1.6,0.6s-0.6,1-0.6,1.7l-1.4-0.1c0.1-1.1,0.5-1.9,1.1-2.4
			c0.6-0.6,1.5-0.8,2.6-0.8c1.1,0,2,0.3,2.6,0.9c0.6,0.6,1,1.4,1,2.2c0,0.5-0.1,0.9-0.3,1.3c-0.2,0.4-0.5,0.9-0.9,1.4
			s-1.1,1.2-2.2,2c-0.8,0.7-1.4,1.2-1.6,1.4c-0.2,0.3-0.4,0.5-0.6,0.8H62.5z"/>
		<path class="st1" d="M64,418.1l1.5-0.1c0.1,0.7,0.4,1.3,0.8,1.6s0.9,0.5,1.4,0.5c0.7,0,1.2-0.3,1.7-0.8c0.5-0.5,0.7-1.2,0.7-2
			c0-0.8-0.2-1.4-0.7-1.9c-0.4-0.5-1-0.7-1.8-0.7c-0.5,0-0.9,0.1-1.2,0.3c-0.4,0.2-0.6,0.5-0.9,0.8l-1.3-0.2l1.1-5.8H71v1.3h-4.5
			l-0.6,3.1c0.7-0.5,1.4-0.7,2.1-0.7c1,0,1.8,0.3,2.5,1c0.7,0.7,1,1.6,1,2.7c0,1-0.3,1.9-0.9,2.7c-0.7,0.9-1.7,1.4-3,1.4
			c-1,0-1.9-0.3-2.5-0.9S64.1,419.1,64,418.1z"/>
		<path class="st1" d="M72.8,415.5c0-1.3,0.1-2.4,0.4-3.2c0.3-0.8,0.7-1.5,1.2-1.9c0.5-0.4,1.2-0.7,2.1-0.7c0.6,0,1.1,0.1,1.6,0.4
			c0.5,0.2,0.8,0.6,1.1,1.1c0.3,0.5,0.5,1,0.7,1.7c0.2,0.7,0.3,1.6,0.3,2.7c0,1.3-0.1,2.4-0.4,3.2c-0.3,0.8-0.7,1.5-1.2,1.9
			c-0.5,0.4-1.2,0.7-2.1,0.7c-1.1,0-2-0.4-2.6-1.2C73.2,419.2,72.8,417.6,72.8,415.5z M74.3,415.5c0,1.9,0.2,3.1,0.7,3.7
			s1,0.9,1.6,0.9c0.6,0,1.2-0.3,1.6-0.9c0.4-0.6,0.7-1.9,0.7-3.7c0-1.9-0.2-3.1-0.7-3.7c-0.4-0.6-1-0.9-1.6-0.9
			c-0.6,0-1.2,0.3-1.5,0.8C74.5,412.3,74.3,413.6,74.3,415.5z"/>
	</g>
	<g>
		<path class="st1" d="M55.2,349l1.4-0.2c0.2,0.8,0.4,1.4,0.8,1.7c0.4,0.3,0.9,0.5,1.4,0.5c0.7,0,1.2-0.2,1.7-0.7
			c0.5-0.5,0.7-1,0.7-1.7c0-0.6-0.2-1.2-0.6-1.6c-0.4-0.4-1-0.6-1.6-0.6c-0.3,0-0.6,0.1-1,0.2l0.2-1.2c0.1,0,0.2,0,0.2,0
			c0.6,0,1.1-0.2,1.6-0.5s0.7-0.8,0.7-1.4c0-0.5-0.2-0.9-0.5-1.3c-0.3-0.3-0.8-0.5-1.3-0.5c-0.5,0-1,0.2-1.4,0.5
			c-0.4,0.3-0.6,0.9-0.7,1.5l-1.4-0.2c0.2-0.9,0.6-1.7,1.2-2.2c0.6-0.5,1.4-0.8,2.3-0.8c0.6,0,1.2,0.1,1.7,0.4s0.9,0.6,1.2,1.1
			c0.3,0.5,0.4,0.9,0.4,1.5c0,0.5-0.1,0.9-0.4,1.3s-0.7,0.7-1.2,1c0.7,0.2,1.2,0.5,1.6,1c0.4,0.5,0.6,1.1,0.6,1.8
			c0,1-0.4,1.8-1.1,2.5s-1.6,1-2.7,1c-1,0-1.8-0.3-2.5-0.9S55.3,350,55.2,349z"/>
		<path class="st1" d="M64,346.4c0-1.3,0.1-2.4,0.4-3.2c0.3-0.8,0.7-1.5,1.2-1.9c0.5-0.4,1.2-0.7,2.1-0.7c0.6,0,1.1,0.1,1.6,0.4
			c0.5,0.2,0.8,0.6,1.1,1.1c0.3,0.5,0.5,1,0.7,1.7c0.2,0.7,0.3,1.6,0.3,2.7c0,1.3-0.1,2.4-0.4,3.2c-0.3,0.8-0.7,1.5-1.2,1.9
			c-0.5,0.4-1.2,0.7-2.1,0.7c-1.1,0-2-0.4-2.6-1.2C64.4,350.1,64,348.5,64,346.4z M65.4,346.4c0,1.9,0.2,3.1,0.7,3.7s1,0.9,1.6,0.9
			c0.6,0,1.2-0.3,1.6-0.9c0.4-0.6,0.7-1.9,0.7-3.7c0-1.9-0.2-3.1-0.7-3.7c-0.4-0.6-1-0.9-1.6-0.9c-0.6,0-1.2,0.3-1.5,0.8
			C65.7,343.3,65.4,344.5,65.4,346.4z"/>
		<path class="st1" d="M72.8,346.4c0-1.3,0.1-2.4,0.4-3.2c0.3-0.8,0.7-1.5,1.2-1.9c0.5-0.4,1.2-0.7,2.1-0.7c0.6,0,1.1,0.1,1.6,0.4
			c0.5,0.2,0.8,0.6,1.1,1.1c0.3,0.5,0.5,1,0.7,1.7c0.2,0.7,0.3,1.6,0.3,2.7c0,1.3-0.1,2.4-0.4,3.2c-0.3,0.8-0.7,1.5-1.2,1.9
			c-0.5,0.4-1.2,0.7-2.1,0.7c-1.1,0-2-0.4-2.6-1.2C73.2,350.1,72.8,348.5,72.8,346.4z M74.3,346.4c0,1.9,0.2,3.1,0.7,3.7
			s1,0.9,1.6,0.9c0.6,0,1.2-0.3,1.6-0.9c0.4-0.6,0.7-1.9,0.7-3.7c0-1.9-0.2-3.1-0.7-3.7c-0.4-0.6-1-0.9-1.6-0.9
			c-0.6,0-1.2,0.3-1.5,0.8C74.5,343.3,74.3,344.5,74.3,346.4z"/>
	</g>
	<g>
		<path class="st1" d="M55.2,279.9l1.4-0.2c0.2,0.8,0.4,1.4,0.8,1.7c0.4,0.3,0.9,0.5,1.4,0.5c0.7,0,1.2-0.2,1.7-0.7
			c0.5-0.5,0.7-1,0.7-1.7c0-0.6-0.2-1.2-0.6-1.6c-0.4-0.4-1-0.6-1.6-0.6c-0.3,0-0.6,0.1-1,0.2l0.2-1.2c0.1,0,0.2,0,0.2,0
			c0.6,0,1.1-0.2,1.6-0.5s0.7-0.8,0.7-1.4c0-0.5-0.2-0.9-0.5-1.3c-0.3-0.3-0.8-0.5-1.3-0.5c-0.5,0-1,0.2-1.4,0.5
			c-0.4,0.3-0.6,0.9-0.7,1.5l-1.4-0.2c0.2-0.9,0.6-1.7,1.2-2.2c0.6-0.5,1.4-0.8,2.3-0.8c0.6,0,1.2,0.1,1.7,0.4s0.9,0.6,1.2,1.1
			c0.3,0.5,0.4,0.9,0.4,1.5c0,0.5-0.1,0.9-0.4,1.3s-0.7,0.7-1.2,1c0.7,0.2,1.2,0.5,1.6,1c0.4,0.5,0.6,1.1,0.6,1.8
			c0,1-0.4,1.8-1.1,2.5s-1.6,1-2.7,1c-1,0-1.8-0.3-2.5-0.9S55.3,280.9,55.2,279.9z"/>
		<path class="st1" d="M64,280l1.5-0.1c0.1,0.7,0.4,1.3,0.8,1.6s0.9,0.5,1.4,0.5c0.7,0,1.2-0.3,1.7-0.8c0.5-0.5,0.7-1.2,0.7-2
			c0-0.8-0.2-1.4-0.7-1.9c-0.4-0.5-1-0.7-1.8-0.7c-0.5,0-0.9,0.1-1.2,0.3c-0.4,0.2-0.6,0.5-0.9,0.8l-1.3-0.2l1.1-5.8H71v1.3h-4.5
			l-0.6,3.1c0.7-0.5,1.4-0.7,2.1-0.7c1,0,1.8,0.3,2.5,1c0.7,0.7,1,1.6,1,2.7c0,1-0.3,1.9-0.9,2.7c-0.7,0.9-1.7,1.4-3,1.4
			c-1,0-1.9-0.3-2.5-0.9S64.1,280.9,64,280z"/>
		<path class="st1" d="M72.8,277.3c0-1.3,0.1-2.4,0.4-3.2c0.3-0.8,0.7-1.5,1.2-1.9c0.5-0.4,1.2-0.7,2.1-0.7c0.6,0,1.1,0.1,1.6,0.4
			c0.5,0.2,0.8,0.6,1.1,1.1c0.3,0.5,0.5,1,0.7,1.7c0.2,0.7,0.3,1.6,0.3,2.7c0,1.3-0.1,2.4-0.4,3.2c-0.3,0.8-0.7,1.5-1.2,1.9
			c-0.5,0.4-1.2,0.7-2.1,0.7c-1.1,0-2-0.4-2.6-1.2C73.2,281,72.8,279.5,72.8,277.3z M74.3,277.3c0,1.9,0.2,3.1,0.7,3.7
			s1,0.9,1.6,0.9c0.6,0,1.2-0.3,1.6-0.9c0.4-0.6,0.7-1.9,0.7-3.7c0-1.9-0.2-3.1-0.7-3.7c-0.4-0.6-1-0.9-1.6-0.9
			c-0.6,0-1.2,0.3-1.5,0.8C74.5,274.2,74.3,275.5,74.3,277.3z"/>
	</g>
	<g>
		<path class="st1" d="M59.6,213.9v-2.7h-4.9v-1.3l5.2-7.4H61v7.4h1.5v1.3H61v2.7H59.6z M59.6,209.9v-5.1l-3.6,5.1H59.6z"/>
		<path class="st1" d="M64,208.3c0-1.3,0.1-2.4,0.4-3.2c0.3-0.8,0.7-1.5,1.2-1.9c0.5-0.4,1.2-0.7,2.1-0.7c0.6,0,1.1,0.1,1.6,0.4
			c0.5,0.2,0.8,0.6,1.1,1.1c0.3,0.5,0.5,1,0.7,1.7c0.2,0.7,0.3,1.6,0.3,2.7c0,1.3-0.1,2.4-0.4,3.2c-0.3,0.8-0.7,1.5-1.2,1.9
			c-0.5,0.4-1.2,0.7-2.1,0.7c-1.1,0-2-0.4-2.6-1.2C64.4,211.9,64,210.4,64,208.3z M65.4,208.3c0,1.9,0.2,3.1,0.7,3.7s1,0.9,1.6,0.9
			c0.6,0,1.2-0.3,1.6-0.9c0.4-0.6,0.7-1.9,0.7-3.7c0-1.9-0.2-3.1-0.7-3.7c-0.4-0.6-1-0.9-1.6-0.9c-0.6,0-1.2,0.3-1.5,0.8
			C65.7,205.1,65.4,206.4,65.4,208.3z"/>
		<path class="st1" d="M72.8,208.3c0-1.3,0.1-2.4,0.4-3.2c0.3-0.8,0.7-1.5,1.2-1.9c0.5-0.4,1.2-0.7,2.1-0.7c0.6,0,1.1,0.1,1.6,0.4
			c0.5,0.2,0.8,0.6,1.1,1.1c0.3,0.5,0.5,1,0.7,1.7c0.2,0.7,0.3,1.6,0.3,2.7c0,1.3-0.1,2.4-0.4,3.2c-0.3,0.8-0.7,1.5-1.2,1.9
			c-0.5,0.4-1.2,0.7-2.1,0.7c-1.1,0-2-0.4-2.6-1.2C73.2,211.9,72.8,210.4,72.8,208.3z M74.3,208.3c0,1.9,0.2,3.1,0.7,3.7
			s1,0.9,1.6,0.9c0.6,0,1.2-0.3,1.6-0.9c0.4-0.6,0.7-1.9,0.7-3.7c0-1.9-0.2-3.1-0.7-3.7c-0.4-0.6-1-0.9-1.6-0.9
			c-0.6,0-1.2,0.3-1.5,0.8C74.5,205.1,74.3,206.4,74.3,208.3z"/>
	</g>
	<g>
		<path class="st1" d="M59.6,144.8v-2.7h-4.9v-1.3l5.2-7.4H61v7.4h1.5v1.3H61v2.7H59.6z M59.6,140.8v-5.1l-3.6,5.1H59.6z"/>
		<path class="st1" d="M64,141.8l1.5-0.1c0.1,0.7,0.4,1.3,0.8,1.6s0.9,0.5,1.4,0.5c0.7,0,1.2-0.3,1.7-0.8c0.5-0.5,0.7-1.2,0.7-2
			c0-0.8-0.2-1.4-0.7-1.9c-0.4-0.5-1-0.7-1.8-0.7c-0.5,0-0.9,0.1-1.2,0.3c-0.4,0.2-0.6,0.5-0.9,0.8l-1.3-0.2l1.1-5.8H71v1.3h-4.5
			l-0.6,3.1c0.7-0.5,1.4-0.7,2.1-0.7c1,0,1.8,0.3,2.5,1c0.7,0.7,1,1.6,1,2.7c0,1-0.3,1.9-0.9,2.7c-0.7,0.9-1.7,1.4-3,1.4
			c-1,0-1.9-0.3-2.5-0.9S64.1,142.8,64,141.8z"/>
		<path class="st1" d="M72.8,139.2c0-1.3,0.1-2.4,0.4-3.2c0.3-0.8,0.7-1.5,1.2-1.9c0.5-0.4,1.2-0.7,2.1-0.7c0.6,0,1.1,0.1,1.6,0.4
			c0.5,0.2,0.8,0.6,1.1,1.1c0.3,0.5,0.5,1,0.7,1.7c0.2,0.7,0.3,1.6,0.3,2.7c0,1.3-0.1,2.4-0.4,3.2c-0.3,0.8-0.7,1.5-1.2,1.9
			c-0.5,0.4-1.2,0.7-2.1,0.7c-1.1,0-2-0.4-2.6-1.2C73.2,142.9,72.8,141.3,72.8,139.2z M74.3,139.2c0,1.9,0.2,3.1,0.7,3.7
			s1,0.9,1.6,0.9c0.6,0,1.2-0.3,1.6-0.9c0.4-0.6,0.7-1.9,0.7-3.7c0-1.9-0.2-3.1-0.7-3.7c-0.4-0.6-1-0.9-1.6-0.9
			c-0.6,0-1.2,0.3-1.5,0.8C74.5,136.1,74.3,137.3,74.3,139.2z"/>
	</g>
	<g>
		<path class="st1" d="M318.6,822v1.3h-7.5c0-0.3,0-0.7,0.2-1c0.2-0.5,0.5-1,0.9-1.5c0.4-0.5,1-1.1,1.8-1.7c1.2-1,2.1-1.8,2.5-2.4
			s0.7-1.2,0.7-1.7c0-0.6-0.2-1-0.6-1.4s-0.9-0.6-1.5-0.6c-0.7,0-1.2,0.2-1.6,0.6s-0.6,1-0.6,1.7l-1.4-0.1c0.1-1.1,0.5-1.9,1.1-2.4
			c0.6-0.6,1.5-0.8,2.6-0.8c1.1,0,2,0.3,2.6,0.9c0.6,0.6,1,1.4,1,2.2c0,0.5-0.1,0.9-0.3,1.3c-0.2,0.4-0.5,0.9-0.9,1.4
			s-1.1,1.2-2.2,2c-0.8,0.7-1.4,1.2-1.6,1.4c-0.2,0.3-0.4,0.5-0.6,0.8H318.6z"/>
		<path class="st1" d="M320.1,817.7c0-1.3,0.1-2.4,0.4-3.2c0.3-0.8,0.7-1.5,1.2-1.9c0.5-0.4,1.2-0.7,2.1-0.7c0.6,0,1.1,0.1,1.6,0.4
			c0.5,0.2,0.8,0.6,1.1,1.1c0.3,0.5,0.5,1,0.7,1.7c0.2,0.7,0.3,1.6,0.3,2.7c0,1.3-0.1,2.4-0.4,3.2c-0.3,0.8-0.7,1.5-1.2,1.9
			c-0.5,0.4-1.2,0.7-2.1,0.7c-1.1,0-2-0.4-2.6-1.2C320.5,821.4,320.1,819.9,320.1,817.7z M321.6,817.7c0,1.9,0.2,3.1,0.7,3.7
			s1,0.9,1.6,0.9c0.6,0,1.2-0.3,1.6-0.9c0.4-0.6,0.7-1.9,0.7-3.7c0-1.9-0.2-3.1-0.7-3.7c-0.4-0.6-1-0.9-1.6-0.9
			c-0.6,0-1.2,0.3-1.5,0.8C321.8,814.6,321.6,815.9,321.6,817.7z"/>
		<path class="st1" d="M334.2,823.4h-1.4v-8.9c-0.3,0.3-0.8,0.6-1.3,1c-0.5,0.3-1,0.6-1.5,0.7v-1.3c0.8-0.4,1.5-0.8,2-1.3
			c0.6-0.5,1-1,1.2-1.5h0.9V823.4z"/>
		<path class="st1" d="M337.8,820.4l1.5-0.1c0.1,0.7,0.4,1.3,0.8,1.6s0.9,0.5,1.4,0.5c0.7,0,1.2-0.3,1.7-0.8c0.5-0.5,0.7-1.2,0.7-2
			c0-0.8-0.2-1.4-0.7-1.9c-0.4-0.5-1-0.7-1.8-0.7c-0.5,0-0.9,0.1-1.2,0.3c-0.4,0.2-0.6,0.5-0.9,0.8l-1.3-0.2l1.1-5.8h5.7v1.3h-4.5
			l-0.6,3.1c0.7-0.5,1.4-0.7,2.1-0.7c1,0,1.8,0.3,2.5,1c0.7,0.7,1,1.6,1,2.7c0,1-0.3,1.9-0.9,2.7c-0.7,0.9-1.7,1.4-3,1.4
			c-1,0-1.9-0.3-2.5-0.9S337.9,821.3,337.8,820.4z"/>
	</g>
	<g>
		<path class="st1" d="M447.2,822v1.3h-7.5c0-0.3,0-0.7,0.2-1c0.2-0.5,0.5-1,0.9-1.5c0.4-0.5,1-1.1,1.8-1.7c1.2-1,2.1-1.8,2.5-2.4
			s0.7-1.2,0.7-1.7c0-0.6-0.2-1-0.6-1.4s-0.9-0.6-1.5-0.6c-0.7,0-1.2,0.2-1.6,0.6s-0.6,1-0.6,1.7l-1.4-0.1c0.1-1.1,0.5-1.9,1.1-2.4
			c0.6-0.6,1.5-0.8,2.6-0.8c1.1,0,2,0.3,2.6,0.9c0.6,0.6,1,1.4,1,2.2c0,0.5-0.1,0.9-0.3,1.3c-0.2,0.4-0.5,0.9-0.9,1.4
			s-1.1,1.2-2.2,2c-0.8,0.7-1.4,1.2-1.6,1.4c-0.2,0.3-0.4,0.5-0.6,0.8H447.2z"/>
		<path class="st1" d="M448.7,817.7c0-1.3,0.1-2.4,0.4-3.2c0.3-0.8,0.7-1.5,1.2-1.9c0.5-0.4,1.2-0.7,2.1-0.7c0.6,0,1.1,0.1,1.6,0.4
			c0.5,0.2,0.8,0.6,1.1,1.1c0.3,0.5,0.5,1,0.7,1.7c0.2,0.7,0.3,1.6,0.3,2.7c0,1.3-0.1,2.4-0.4,3.2c-0.3,0.8-0.7,1.5-1.2,1.9
			c-0.5,0.4-1.2,0.7-2.1,0.7c-1.1,0-2-0.4-2.6-1.2C449.1,821.4,448.7,819.9,448.7,817.7z M450.1,817.7c0,1.9,0.2,3.1,0.7,3.7
			s1,0.9,1.6,0.9c0.6,0,1.2-0.3,1.6-0.9c0.4-0.6,0.7-1.9,0.7-3.7c0-1.9-0.2-3.1-0.7-3.7c-0.4-0.6-1-0.9-1.6-0.9
			c-0.6,0-1.2,0.3-1.5,0.8C450.4,814.6,450.1,815.9,450.1,817.7z"/>
		<path class="st1" d="M462.8,823.4h-1.4v-8.9c-0.3,0.3-0.8,0.6-1.3,1c-0.5,0.3-1,0.6-1.5,0.7v-1.3c0.8-0.4,1.5-0.8,2-1.3
			c0.6-0.5,1-1,1.2-1.5h0.9V823.4z"/>
		<path class="st1" d="M468.5,817.2c-0.6-0.2-1-0.5-1.3-0.9c-0.3-0.4-0.4-0.9-0.4-1.4c0-0.8,0.3-1.5,0.9-2.1
			c0.6-0.6,1.4-0.8,2.4-0.8c1,0,1.8,0.3,2.4,0.9c0.6,0.6,0.9,1.3,0.9,2.1c0,0.5-0.1,1-0.4,1.4c-0.3,0.4-0.7,0.7-1.3,0.9
			c0.7,0.2,1.2,0.6,1.6,1.1s0.5,1.1,0.5,1.8c0,1-0.3,1.8-1,2.5c-0.7,0.7-1.6,1-2.7,1s-2-0.3-2.7-1c-0.7-0.7-1-1.5-1-2.5
			c0-0.7,0.2-1.4,0.6-1.9S467.8,817.4,468.5,817.2z M467.8,820.1c0,0.4,0.1,0.8,0.3,1.2c0.2,0.4,0.5,0.7,0.8,0.9
			c0.4,0.2,0.8,0.3,1.2,0.3c0.7,0,1.2-0.2,1.7-0.6c0.4-0.4,0.7-1,0.7-1.6c0-0.7-0.2-1.2-0.7-1.7c-0.4-0.4-1-0.7-1.7-0.7
			c-0.7,0-1.2,0.2-1.6,0.7C468,818.9,467.8,819.4,467.8,820.1z M468.2,814.8c0,0.5,0.2,1,0.5,1.3c0.3,0.3,0.8,0.5,1.3,0.5
			c0.5,0,1-0.2,1.3-0.5c0.3-0.3,0.5-0.8,0.5-1.2c0-0.5-0.2-0.9-0.5-1.3c-0.4-0.3-0.8-0.5-1.3-0.5c-0.5,0-1,0.2-1.3,0.5
			C468.4,813.9,468.2,814.3,468.2,814.8z"/>
	</g>
	<g>
		<path class="st1" d="M581.1,822v1.3h-7.5c0-0.3,0-0.7,0.2-1c0.2-0.5,0.5-1,0.9-1.5c0.4-0.5,1-1.1,1.8-1.7c1.2-1,2.1-1.8,2.5-2.4
			s0.7-1.2,0.7-1.7c0-0.6-0.2-1-0.6-1.4s-0.9-0.6-1.5-0.6c-0.7,0-1.2,0.2-1.6,0.6s-0.6,1-0.6,1.7l-1.4-0.1c0.1-1.1,0.5-1.9,1.1-2.4
			c0.6-0.6,1.5-0.8,2.6-0.8c1.1,0,2,0.3,2.6,0.9c0.6,0.6,1,1.4,1,2.2c0,0.5-0.1,0.9-0.3,1.3c-0.2,0.4-0.5,0.9-0.9,1.4
			s-1.1,1.2-2.2,2c-0.8,0.7-1.4,1.2-1.6,1.4c-0.2,0.3-0.4,0.5-0.6,0.8H581.1z"/>
		<path class="st1" d="M582.6,817.7c0-1.3,0.1-2.4,0.4-3.2c0.3-0.8,0.7-1.5,1.2-1.9c0.5-0.4,1.2-0.7,2.1-0.7c0.6,0,1.1,0.1,1.6,0.4
			c0.5,0.2,0.8,0.6,1.1,1.1c0.3,0.5,0.5,1,0.7,1.7c0.2,0.7,0.3,1.6,0.3,2.7c0,1.3-0.1,2.4-0.4,3.2c-0.3,0.8-0.7,1.5-1.2,1.9
			c-0.5,0.4-1.2,0.7-2.1,0.7c-1.1,0-2-0.4-2.6-1.2C583,821.4,582.6,819.9,582.6,817.7z M584.1,817.7c0,1.9,0.2,3.1,0.7,3.7
			s1,0.9,1.6,0.9c0.6,0,1.2-0.3,1.6-0.9c0.4-0.6,0.7-1.9,0.7-3.7c0-1.9-0.2-3.1-0.7-3.7c-0.4-0.6-1-0.9-1.6-0.9
			c-0.6,0-1.2,0.3-1.5,0.8C584.3,814.6,584.1,815.9,584.1,817.7z"/>
		<path class="st1" d="M596.7,823.4h-1.4v-8.9c-0.3,0.3-0.8,0.6-1.3,1c-0.5,0.3-1,0.6-1.5,0.7v-1.3c0.8-0.4,1.5-0.8,2-1.3
			c0.6-0.5,1-1,1.2-1.5h0.9V823.4z"/>
		<path class="st1" d="M600.4,813.5v-1.3h7.4v1.1c-0.7,0.8-1.4,1.8-2.2,3.1s-1.3,2.6-1.6,3.9c-0.3,1-0.5,2-0.5,3.1H602
			c0-0.9,0.2-2,0.5-3.2c0.3-1.3,0.8-2.5,1.4-3.7c0.6-1.2,1.3-2.2,2-3H600.4z"/>
	</g>
	<rect x="565" y="145.2" class="st2" width="132" height="28"/>
	<g>
		<path class="st3" d="M577.9,164.5v-2.1h-4v-1l4.2-5.7h0.9v5.7h1.3v1h-1.3v2.1H577.9z M577.9,161.4v-3.9l-2.9,3.9H577.9z"/>
		<path class="st3" d="M585.8,164.5h-1.1v-6.8c-0.3,0.2-0.6,0.5-1.1,0.7c-0.4,0.2-0.8,0.4-1.2,0.6v-1c0.6-0.3,1.2-0.6,1.7-1
			c0.5-0.4,0.8-0.8,1-1.2h0.7V164.5z"/>
		<path class="st3" d="M588.8,156.9v-1h6v0.8c-0.6,0.6-1.2,1.4-1.8,2.4s-1,2-1.3,3c-0.2,0.7-0.4,1.5-0.4,2.4h-1.2
			c0-0.7,0.2-1.5,0.4-2.5c0.3-1,0.7-1.9,1.2-2.8c0.5-0.9,1.1-1.7,1.6-2.3H588.8z"/>
		<path class="st3" d="M602.2,164.5v-7.7h-3.1v-1h7.4v1h-3.1v7.7H602.2z"/>
		<path class="st3" d="M605.7,161.4c0-1.2,0.3-2,1-2.6c0.6-0.5,1.3-0.7,2.1-0.7c0.9,0,1.7,0.3,2.3,0.9s0.9,1.4,0.9,2.4
			c0,0.8-0.1,1.5-0.4,1.9c-0.3,0.5-0.6,0.8-1.1,1.1s-1,0.4-1.6,0.4c-0.9,0-1.7-0.3-2.3-0.9S605.7,162.4,605.7,161.4z M606.9,161.4
			c0,0.8,0.2,1.4,0.6,1.8c0.4,0.4,0.9,0.6,1.4,0.6c0.6,0,1-0.2,1.4-0.6c0.4-0.4,0.6-1,0.6-1.9c0-0.8-0.2-1.4-0.6-1.8
			c-0.4-0.4-0.8-0.6-1.4-0.6c-0.6,0-1,0.2-1.4,0.6C607.1,159.9,606.9,160.5,606.9,161.4z"/>
		<path class="st3" d="M615.9,163.6l0.2,0.9c-0.3,0.1-0.6,0.1-0.9,0.1c-0.4,0-0.7-0.1-1-0.2s-0.4-0.3-0.5-0.5
			c-0.1-0.2-0.1-0.6-0.1-1.3V159h-0.8v-0.8h0.8v-1.6l1.1-0.6v2.2h1.1v0.8h-1.1v3.7c0,0.3,0,0.5,0.1,0.6c0,0.1,0.1,0.2,0.2,0.2
			c0.1,0.1,0.2,0.1,0.4,0.1C615.5,163.6,615.7,163.6,615.9,163.6z"/>
		<path class="st3" d="M621.4,163.7c-0.4,0.3-0.8,0.6-1.2,0.7s-0.8,0.2-1.3,0.2c-0.7,0-1.3-0.2-1.7-0.5c-0.4-0.3-0.6-0.8-0.6-1.3
			c0-0.3,0.1-0.6,0.2-0.8s0.3-0.5,0.6-0.6s0.5-0.3,0.8-0.4c0.2-0.1,0.6-0.1,1-0.2c0.9-0.1,1.6-0.2,2-0.4c0-0.1,0-0.2,0-0.3
			c0-0.4-0.1-0.7-0.3-0.9c-0.3-0.2-0.7-0.4-1.3-0.4c-0.5,0-0.9,0.1-1.2,0.3c-0.3,0.2-0.4,0.5-0.6,0.9l-1.1-0.1
			c0.1-0.4,0.3-0.8,0.5-1.1c0.2-0.3,0.6-0.5,1-0.6c0.4-0.1,0.9-0.2,1.5-0.2c0.6,0,1,0.1,1.4,0.2c0.4,0.1,0.6,0.3,0.8,0.5
			c0.2,0.2,0.3,0.4,0.4,0.7c0,0.2,0.1,0.5,0.1,1v1.4c0,1,0,1.6,0.1,1.9c0,0.3,0.1,0.5,0.3,0.8h-1.2
			C621.5,164.3,621.4,164,621.4,163.7z M621.3,161.3c-0.4,0.2-1,0.3-1.9,0.4c-0.5,0.1-0.8,0.1-1,0.2c-0.2,0.1-0.3,0.2-0.5,0.3
			c-0.1,0.2-0.2,0.3-0.2,0.5c0,0.3,0.1,0.5,0.3,0.7s0.6,0.3,1,0.3c0.4,0,0.8-0.1,1.2-0.3c0.3-0.2,0.6-0.4,0.8-0.7
			c0.1-0.2,0.2-0.6,0.2-1.1V161.3z"/>
		<path class="st3" d="M624.2,164.5v-8.7h1.1v8.7H624.2z"/>
		<path class="st3" d="M635.1,164.5v-0.8c-0.4,0.6-1.1,0.9-1.9,0.9c-0.5,0-1-0.1-1.5-0.4c-0.5-0.3-0.8-0.7-1-1.2
			c-0.2-0.5-0.4-1.1-0.4-1.7c0-0.6,0.1-1.2,0.3-1.7c0.2-0.5,0.6-0.9,1-1.2c0.4-0.3,1-0.4,1.5-0.4c0.4,0,0.8,0.1,1.1,0.2
			s0.6,0.4,0.8,0.6v-3.1h1.1v8.7H635.1z M631.5,161.4c0,0.8,0.2,1.4,0.5,1.8c0.4,0.4,0.8,0.6,1.3,0.6c0.5,0,0.9-0.2,1.3-0.6
			c0.3-0.4,0.5-1,0.5-1.8c0-0.9-0.2-1.5-0.5-1.9c-0.4-0.4-0.8-0.6-1.3-0.6c-0.5,0-0.9,0.2-1.3,0.6S631.5,160.5,631.5,161.4z"/>
		<path class="st3" d="M642.6,162.5l1.2,0.1c-0.2,0.6-0.5,1.1-1,1.5c-0.5,0.4-1.1,0.5-1.9,0.5c-1,0-1.8-0.3-2.3-0.9
			c-0.6-0.6-0.9-1.4-0.9-2.4c0-1.1,0.3-1.9,0.9-2.5c0.6-0.6,1.3-0.9,2.3-0.9c0.9,0,1.6,0.3,2.2,0.9s0.9,1.4,0.9,2.4
			c0,0.1,0,0.2,0,0.3h-5c0,0.7,0.3,1.2,0.6,1.6c0.4,0.4,0.8,0.6,1.4,0.6c0.4,0,0.8-0.1,1.1-0.3C642.1,163.3,642.4,162.9,642.6,162.5
			z M638.8,160.7h3.8c-0.1-0.5-0.2-0.9-0.4-1.2c-0.4-0.4-0.8-0.6-1.4-0.6c-0.5,0-1,0.2-1.3,0.5C639,159.8,638.8,160.2,638.8,160.7z"
			/>
		<path class="st3" d="M645.1,164.5v-8.7h1.1v8.7H645.1z"/>
		<path class="st3" d="M648.1,157v-1.2h1.1v1.2H648.1z M648.1,164.5v-6.3h1.1v6.3H648.1z"/>
		<path class="st3" d="M652.8,164.5l-2.6-6.3h1.2l1.4,3.8c0.2,0.4,0.3,0.8,0.4,1.3c0.1-0.3,0.2-0.7,0.4-1.2l1.5-3.9h1.2l-2.6,6.3
			H652.8z"/>
		<path class="st3" d="M662.1,162.5l1.2,0.1c-0.2,0.6-0.5,1.1-1,1.5c-0.5,0.4-1.1,0.5-1.9,0.5c-1,0-1.8-0.3-2.3-0.9
			c-0.6-0.6-0.9-1.4-0.9-2.4c0-1.1,0.3-1.9,0.9-2.5c0.6-0.6,1.3-0.9,2.3-0.9c0.9,0,1.6,0.3,2.2,0.9s0.9,1.4,0.9,2.4
			c0,0.1,0,0.2,0,0.3h-5c0,0.7,0.3,1.2,0.6,1.6c0.4,0.4,0.8,0.6,1.4,0.6c0.4,0,0.8-0.1,1.1-0.3C661.7,163.3,661.9,162.9,662.1,162.5
			z M658.3,160.7h3.8c-0.1-0.5-0.2-0.9-0.4-1.2c-0.4-0.4-0.8-0.6-1.4-0.6c-0.5,0-1,0.2-1.3,0.5C658.5,159.8,658.4,160.2,658.3,160.7
			z"/>
		<path class="st3" d="M664.7,164.5v-6.3h1v1c0.3-0.4,0.5-0.7,0.7-0.9c0.2-0.1,0.5-0.2,0.7-0.2c0.4,0,0.8,0.1,1.2,0.3l-0.4,1
			c-0.3-0.2-0.6-0.2-0.8-0.2c-0.2,0-0.5,0.1-0.7,0.2s-0.3,0.3-0.4,0.6c-0.1,0.4-0.2,0.8-0.2,1.2v3.3H664.7z"/>
		<path class="st3" d="M669,157v-1.2h1.1v1.2H669z M669,164.5v-6.3h1.1v6.3H669z"/>
		<path class="st3" d="M676.5,162.5l1.2,0.1c-0.2,0.6-0.5,1.1-1,1.5c-0.5,0.4-1.1,0.5-1.9,0.5c-1,0-1.8-0.3-2.3-0.9
			c-0.6-0.6-0.9-1.4-0.9-2.4c0-1.1,0.3-1.9,0.9-2.5c0.6-0.6,1.3-0.9,2.3-0.9c0.9,0,1.6,0.3,2.2,0.9s0.9,1.4,0.9,2.4
			c0,0.1,0,0.2,0,0.3h-5c0,0.7,0.3,1.2,0.6,1.6c0.4,0.4,0.8,0.6,1.4,0.6c0.4,0,0.8-0.1,1.1-0.3C676.1,163.3,676.3,162.9,676.5,162.5
			z M672.8,160.7h3.8c-0.1-0.5-0.2-0.9-0.4-1.2c-0.4-0.4-0.8-0.6-1.4-0.6c-0.5,0-1,0.2-1.3,0.5C673,159.8,672.8,160.2,672.8,160.7z"
			/>
		<path class="st3" d="M678.7,162.6l1.1-0.2c0.1,0.4,0.2,0.8,0.5,1s0.7,0.3,1.2,0.3c0.5,0,0.9-0.1,1.2-0.3c0.3-0.2,0.4-0.4,0.4-0.7
			c0-0.2-0.1-0.4-0.3-0.6c-0.2-0.1-0.5-0.2-1.2-0.4c-0.8-0.2-1.4-0.4-1.7-0.5c-0.3-0.1-0.6-0.3-0.7-0.6c-0.2-0.3-0.2-0.5-0.2-0.8
			c0-0.3,0.1-0.5,0.2-0.8c0.1-0.2,0.3-0.4,0.6-0.6c0.2-0.1,0.4-0.2,0.7-0.3c0.3-0.1,0.6-0.1,1-0.1c0.5,0,1,0.1,1.4,0.2
			c0.4,0.1,0.7,0.3,0.9,0.6c0.2,0.2,0.3,0.6,0.4,1l-1.1,0.1c-0.1-0.3-0.2-0.6-0.4-0.8s-0.6-0.3-1-0.3c-0.5,0-0.9,0.1-1.1,0.2
			s-0.3,0.4-0.3,0.6c0,0.1,0,0.3,0.1,0.4c0.1,0.1,0.2,0.2,0.4,0.3c0.1,0,0.5,0.1,1,0.3c0.8,0.2,1.4,0.4,1.7,0.5s0.6,0.3,0.8,0.6
			s0.3,0.6,0.3,0.9c0,0.4-0.1,0.7-0.3,1c-0.2,0.3-0.5,0.6-1,0.7c-0.4,0.2-0.9,0.3-1.4,0.3c-0.9,0-1.5-0.2-2-0.5
			C679.1,163.8,678.8,163.3,678.7,162.6z"/>
	</g>
	<polygon class="st2" points="601,172.2 592,181.9 585,172.2 	"/>
	<g>
		<path class="st2" d="M88.9,821.4v-4.8l-4.4-6.6h1.8l2.2,3.4c0.4,0.6,0.8,1.3,1.2,1.9c0.3-0.6,0.8-1.3,1.2-2l2.2-3.3H95l-4.5,6.6
			v4.8H88.9z"/>
		<path class="st2" d="M100.3,818.7l1.4,0.2c-0.2,0.8-0.6,1.5-1.3,2s-1.4,0.7-2.4,0.7c-1.2,0-2.2-0.4-2.9-1.1s-1.1-1.8-1.1-3.1
			c0-1.4,0.4-2.5,1.1-3.2s1.6-1.1,2.8-1.1c1.1,0,2,0.4,2.7,1.1s1,1.8,1,3.2c0,0.1,0,0.2,0,0.4h-6.1c0.1,0.9,0.3,1.6,0.8,2.1
			c0.5,0.5,1,0.7,1.7,0.7c0.5,0,0.9-0.1,1.3-0.4C99.8,819.7,100.1,819.3,100.3,818.7z M95.7,816.4h4.6c-0.1-0.7-0.2-1.2-0.5-1.6
			c-0.4-0.5-1-0.8-1.7-0.8c-0.6,0-1.2,0.2-1.6,0.6C96,815.2,95.8,815.7,95.7,816.4z"/>
		<path class="st2" d="M108.9,820.3c-0.5,0.4-1,0.8-1.5,0.9c-0.5,0.2-1,0.3-1.5,0.3c-0.9,0-1.6-0.2-2.1-0.7c-0.5-0.4-0.7-1-0.7-1.7
			c0-0.4,0.1-0.8,0.3-1.1c0.2-0.3,0.4-0.6,0.7-0.8c0.3-0.2,0.6-0.4,1-0.5c0.3-0.1,0.7-0.1,1.2-0.2c1.1-0.1,2-0.3,2.5-0.5
			c0-0.2,0-0.3,0-0.4c0-0.6-0.1-1-0.4-1.2c-0.4-0.3-0.9-0.5-1.6-0.5c-0.7,0-1.1,0.1-1.5,0.3c-0.3,0.2-0.5,0.6-0.7,1.2l-1.4-0.2
			c0.1-0.6,0.3-1.1,0.6-1.4c0.3-0.4,0.7-0.6,1.2-0.8c0.5-0.2,1.2-0.3,1.9-0.3c0.7,0,1.3,0.1,1.7,0.2c0.4,0.2,0.8,0.4,1,0.6
			c0.2,0.3,0.4,0.6,0.4,1c0,0.2,0.1,0.7,0.1,1.3v1.9c0,1.3,0,2.1,0.1,2.5c0.1,0.3,0.2,0.7,0.4,1h-1.5
			C109,821.1,108.9,820.7,108.9,820.3z M108.8,817.2c-0.5,0.2-1.3,0.4-2.3,0.5c-0.6,0.1-1,0.2-1.2,0.3c-0.2,0.1-0.4,0.3-0.6,0.5
			c-0.1,0.2-0.2,0.4-0.2,0.7c0,0.4,0.1,0.7,0.4,0.9c0.3,0.2,0.7,0.4,1.2,0.4c0.5,0,1-0.1,1.4-0.4c0.4-0.2,0.7-0.6,0.9-1
			c0.1-0.3,0.2-0.8,0.2-1.4V817.2z"/>
		<path class="st2" d="M112.3,821.4v-8.2h1.3v1.2c0.3-0.6,0.6-1,0.9-1.2c0.3-0.2,0.6-0.3,0.9-0.3c0.5,0,0.9,0.2,1.4,0.5l-0.5,1.3
			c-0.3-0.2-0.7-0.3-1-0.3c-0.3,0-0.6,0.1-0.8,0.3s-0.4,0.4-0.5,0.8c-0.2,0.5-0.2,1-0.2,1.6v4.3H112.3z"/>
	</g>
	<g>
		<path class="st2" d="M112,403.9h11.4v1.5l-8.9,6h8.9v1.4H112v-1.5l8.9-6H112V403.9z"/>
		<path class="st2" d="M116.1,414.7c1.5,0,2.7,0.4,3.4,1.3c0.6,0.7,0.9,1.6,0.9,2.6c0,1.1-0.4,2.1-1.1,2.8s-1.8,1.1-3.1,1.1
			c-1.1,0-1.9-0.2-2.5-0.5c-0.6-0.3-1.1-0.8-1.4-1.4c-0.3-0.6-0.5-1.3-0.5-2c0-1.2,0.4-2.1,1.1-2.8
			C113.6,415.1,114.7,414.7,116.1,414.7z M116.1,416.2c-1.1,0-1.8,0.2-2.4,0.7c-0.5,0.5-0.8,1-0.8,1.7c0,0.7,0.3,1.3,0.8,1.7
			c0.5,0.5,1.3,0.7,2.4,0.7c1,0,1.8-0.2,2.3-0.7s0.8-1,0.8-1.7c0-0.7-0.3-1.3-0.8-1.7C117.9,416.4,117.1,416.2,116.1,416.2z"/>
		<path class="st2" d="M112,424.5h1.6v1.6H112V424.5z"/>
		<path class="st2" d="M116.1,432.4c1.5,0,2.7,0.4,3.4,1.3c0.6,0.7,0.9,1.6,0.9,2.6c0,1.1-0.4,2.1-1.1,2.8s-1.8,1.1-3.1,1.1
			c-1.1,0-1.9-0.2-2.5-0.5c-0.6-0.3-1.1-0.8-1.4-1.4c-0.3-0.6-0.5-1.3-0.5-2c0-1.2,0.4-2.1,1.1-2.8
			C113.6,432.8,114.7,432.4,116.1,432.4z M116.1,433.8c-1.1,0-1.8,0.2-2.4,0.7c-0.5,0.5-0.8,1-0.8,1.7c0,0.7,0.3,1.3,0.8,1.7
			c0.5,0.5,1.3,0.7,2.4,0.7c1,0,1.8-0.2,2.3-0.7s0.8-1,0.8-1.7c0-0.7-0.3-1.3-0.8-1.7C117.9,434.1,117.1,433.8,116.1,433.8z"/>
		<path class="st2" d="M112,442.1h7.2v-1.2h1.1v1.2h0.9c0.6,0,1,0,1.2,0.1c0.4,0.1,0.7,0.4,0.9,0.7c0.2,0.3,0.3,0.8,0.3,1.4
			c0,0.4,0,0.8-0.1,1.3l-1.2-0.2c0.1-0.3,0.1-0.6,0.1-0.8c0-0.4-0.1-0.7-0.3-0.9c-0.2-0.2-0.5-0.3-1-0.3h-0.8v1.6h-1.1v-1.6H112
			V442.1z"/>
		<path class="st2" d="M112,450.7h11.4v4.3c0,0.9-0.1,1.6-0.3,2.1c-0.2,0.5-0.6,0.9-1.1,1.2c-0.5,0.3-1,0.4-1.5,0.4
			c-0.5,0-0.9-0.1-1.4-0.4c-0.4-0.3-0.8-0.7-1-1.2c-0.2,0.7-0.5,1.2-1,1.6c-0.5,0.4-1.1,0.6-1.7,0.6c-0.5,0-1-0.1-1.5-0.3
			c-0.5-0.2-0.8-0.5-1.1-0.8c-0.2-0.3-0.4-0.7-0.6-1.2c-0.1-0.5-0.2-1.1-0.2-1.8V450.7z M113.3,452.2v2.8c0,0.5,0,0.8,0.1,1
			c0.1,0.3,0.2,0.6,0.3,0.9c0.1,0.2,0.4,0.4,0.6,0.6c0.3,0.2,0.6,0.2,1,0.2c0.4,0,0.8-0.1,1.1-0.3s0.5-0.5,0.7-0.9
			c0.1-0.4,0.2-0.9,0.2-1.7v-2.6H113.3z M118.6,452.2v2.5c0,0.7,0,1.1,0.1,1.4c0.1,0.4,0.3,0.7,0.6,0.9c0.3,0.2,0.6,0.3,1,0.3
			c0.4,0,0.7-0.1,1-0.3c0.3-0.2,0.5-0.4,0.6-0.8c0.1-0.3,0.2-0.9,0.2-1.7v-2.3H118.6z"/>
		<path class="st2" d="M112,461.2h8.2v1.4H112V461.2z M121.7,461.2h1.6v1.4h-1.6V461.2z"/>
		<path class="st2" d="M112,464.7h8.2v1.3H119c0.6,0.3,1,0.6,1.2,0.9s0.3,0.6,0.3,0.9c0,0.5-0.1,0.9-0.5,1.4l-1.3-0.5
			c0.2-0.3,0.3-0.7,0.3-1c0-0.3-0.1-0.6-0.3-0.8s-0.4-0.4-0.8-0.5c-0.5-0.2-1-0.2-1.6-0.2H112V464.7z"/>
		<path class="st2" d="M113.2,473.1l-1.2,0.2c-0.1-0.4-0.1-0.7-0.1-1.1c0-0.5,0.1-0.9,0.2-1.2s0.4-0.5,0.6-0.6
			c0.3-0.1,0.8-0.2,1.6-0.2h4.7v-1h1.1v1h2l0.8,1.4h-2.9v1.4h-1.1v-1.4h-4.8c-0.4,0-0.7,0-0.8,0.1c-0.1,0-0.2,0.1-0.3,0.2
			c-0.1,0.1-0.1,0.3-0.1,0.5C113.2,472.6,113.2,472.8,113.2,473.1z"/>
		<path class="st2" d="M112,474.4h11.4v1.4h-4.1c0.8,0.7,1.1,1.5,1.1,2.5c0,0.6-0.1,1.1-0.4,1.6s-0.6,0.8-1,1
			c-0.4,0.2-1,0.3-1.8,0.3H112v-1.4h5.2c0.7,0,1.2-0.2,1.5-0.5c0.3-0.3,0.5-0.7,0.5-1.3c0-0.4-0.1-0.8-0.3-1.2s-0.5-0.6-0.9-0.8
			c-0.4-0.2-0.9-0.2-1.5-0.2H112V474.4z"/>
		<path class="st2" d="M114.4,482.7l0.2,1.4c-0.6,0.1-1,0.3-1.3,0.6c-0.3,0.4-0.4,0.8-0.4,1.5c0,0.6,0.1,1.1,0.4,1.4
			c0.3,0.3,0.6,0.5,0.9,0.5c0.3,0,0.6-0.1,0.7-0.4c0.1-0.2,0.3-0.7,0.5-1.4c0.3-1,0.5-1.7,0.7-2.1c0.2-0.4,0.4-0.7,0.8-0.9
			c0.3-0.2,0.7-0.3,1.1-0.3c0.4,0,0.7,0.1,1,0.3c0.3,0.2,0.6,0.4,0.8,0.7c0.2,0.2,0.3,0.5,0.4,0.9c0.1,0.4,0.2,0.8,0.2,1.2
			c0,0.6-0.1,1.2-0.3,1.7c-0.2,0.5-0.4,0.8-0.8,1.1c-0.3,0.2-0.7,0.4-1.3,0.5l-0.2-1.4c0.4-0.1,0.8-0.2,1-0.5
			c0.2-0.3,0.4-0.7,0.4-1.3c0-0.6-0.1-1.1-0.3-1.4c-0.2-0.3-0.5-0.4-0.7-0.4c-0.2,0-0.3,0.1-0.5,0.2c-0.1,0.1-0.3,0.3-0.4,0.5
			c-0.1,0.1-0.2,0.6-0.4,1.2c-0.3,1-0.5,1.7-0.6,2.1s-0.4,0.7-0.7,0.9c-0.3,0.2-0.7,0.3-1.2,0.3c-0.5,0-0.9-0.1-1.3-0.4
			s-0.7-0.7-1-1.2c-0.2-0.5-0.3-1.1-0.3-1.7c0-1.1,0.2-1.9,0.7-2.4C112.9,483.2,113.6,482.9,114.4,482.7z"/>
	</g>
	<circle class="st2" cx="195.8" cy="677.4" r="7.5"/>
	<circle class="st2" cx="322.5" cy="603.7" r="7.5"/>
	<circle class="st2" cx="458.5" cy="429.7" r="7.5"/>
	<circle class="st2" cx="593" cy="201.2" r="7.5"/>
	<polyline class="st4" points="194.5,677.7 322.5,603.7 458.5,429.7 593,200.7 	"/>
</g>
</svg>
